<svg width="660" height="704" viewBox="0 0 660 704" fill="none" xmlns="http://www.w3.org/2000/svg">
<path opacity="0.2" d="M255.239 555.323L383.694 531.371C383.694 531.371 412.754 623.064 418.616 634.924L415.547 642.121L417.48 654.165L289.823 683.195L279.589 675.124L255.239 555.323Z" fill="black" fill-opacity="0.7"/>
<path d="M374.362 521.544L250.183 550.944L279.584 675.123L403.762 645.723L374.362 521.544Z" fill="#92E3A9"/>
<path opacity="0.2" d="M382.298 555.046L402.904 642.059L284.483 670.092C270.214 634.387 259.305 589.431 259.305 589.431L382.298 555.046Z" fill="black" fill-opacity="0.7"/>
<path d="M374.362 521.544L250.183 550.944L279.584 675.123L403.762 645.723L374.362 521.544Z" stroke="#263238" stroke-linecap="round" stroke-linejoin="round"/>
<path d="M407.645 637.81C376.605 645.159 332.646 652.064 306.133 655.961C292.324 657.986 283.118 659.183 283.118 659.183C271.365 637.702 250.16 550.95 250.16 550.95L374.334 521.552C374.58 522.611 374.795 523.67 375.025 524.713C389.831 591.81 407.645 637.81 407.645 637.81Z" fill="white"/>
<path opacity="0.4" d="M407.645 637.809C376.605 645.158 332.646 652.063 306.133 655.96C286.186 642.719 281.414 629.738 281.66 617.356C281.921 602.657 345.964 617.019 359.344 602.458C368.888 592.07 368.55 547.988 375.056 524.712C389.831 591.809 407.645 637.809 407.645 637.809Z" fill="#92E3A9"/>
<path d="M407.645 637.81C376.605 645.159 332.646 652.064 306.133 655.961C292.324 657.986 283.118 659.183 283.118 659.183C271.365 637.702 250.16 550.95 250.16 550.95L374.334 521.552C374.58 522.611 374.795 523.67 375.025 524.713C389.831 591.81 407.645 637.81 407.645 637.81Z" stroke="#263238" stroke-linecap="round" stroke-linejoin="round"/>
<path d="M271.15 569.73C272.834 567.767 274.855 566.12 277.118 564.866L278.959 569.592L285.388 567.26C287.536 566.477 289.991 565.465 290.743 563.332C291.925 566.14 296.006 565.664 298.906 564.743C318.984 558.28 339.493 553.24 360.28 549.661" stroke="#263238" stroke-linecap="round" stroke-linejoin="round"/>
<path d="M274.264 586.915C272.929 586.224 274.034 583.846 275.538 583.938C277.041 584.03 278.008 585.687 278.131 587.191C278.796 587.118 279.421 586.837 279.917 586.388C280.413 585.939 280.754 585.345 280.893 584.69L283.025 586.224C282.848 585.96 282.726 585.662 282.668 585.348C282.61 585.035 282.617 584.713 282.689 584.403C282.76 584.092 282.894 583.8 283.083 583.543C283.271 583.286 283.511 583.071 283.786 582.91C284.061 582.75 284.366 582.647 284.682 582.609C284.998 582.571 285.319 582.598 285.625 582.688C285.93 582.779 286.214 582.931 286.458 583.135C286.702 583.34 286.902 583.592 287.045 583.877C286.892 582.128 287.567 579.611 289.27 580.01C289.801 580.229 290.285 580.546 290.697 580.946C291.217 581.263 291.804 581.452 292.411 581.499C293.018 581.546 293.628 581.448 294.19 581.215C294.752 580.982 295.251 580.619 295.647 580.156C296.042 579.694 296.323 579.144 296.466 578.553C298.139 580.455 301.069 580.194 303.632 579.765L325.972 575.959C326.187 574.548 326.892 572.737 328.304 572.891C329.117 573.014 329.654 573.796 330.36 574.226C331.448 574.681 332.664 574.725 333.782 574.348C343.845 572.168 353.721 569.197 363.318 565.465" stroke="#263238" stroke-linecap="round" stroke-linejoin="round"/>
<path d="M281.967 606.478C284.951 606.739 287.956 606.325 290.759 605.265C290.263 604.218 290.137 603.032 290.402 601.904C290.667 600.775 291.306 599.77 292.216 599.051L294.917 600.785C305.791 600.527 316.601 599.034 327.138 596.336C331.848 595.139 336.513 593.681 341.162 592.224L367.645 583.969" stroke="#263238" stroke-linecap="round" stroke-linejoin="round"/>
<path opacity="0.2" d="M487.17 62.5676L484.7 62.721C483.562 62.853 482.414 62.5726 481.466 61.9307C480.517 61.2888 479.83 60.328 479.529 59.2227C475.755 45.4903 461.945 37.7725 446.004 38.7699C431.611 39.6598 416.437 48.7431 407.645 61.294C406.565 62.9393 405.133 64.325 403.454 65.3516C401.775 66.3783 399.889 67.0204 397.933 67.232L385.658 67.9991C383.982 68.154 382.3 67.7664 380.861 66.8935C379.422 66.0206 378.301 64.7085 377.664 63.1506C372.708 51.4435 360.142 44.094 345.734 44.984C329.762 45.9659 313.252 55.5556 305.043 70.0398C304.394 71.2055 303.474 72.1977 302.36 72.9322C301.247 73.6667 299.972 74.1219 298.645 74.2593L296.175 74.4127C295.595 74.4765 295.052 74.7262 294.626 75.1245C294.2 75.5227 293.914 76.0481 293.812 76.6222L292.845 82.7595C292.786 82.9654 292.771 83.1813 292.8 83.3935C292.829 83.6056 292.902 83.8093 293.015 83.9914C293.128 84.1735 293.277 84.33 293.454 84.4508C293.631 84.5716 293.831 84.654 294.042 84.6928L297.019 85.5981C298.173 85.9415 299.172 86.676 299.844 87.6755C300.516 88.6749 300.819 89.8771 300.701 91.0757C299.658 110.731 313.528 125.169 333.275 123.957C352.316 122.775 370.437 107.401 376.36 88.452C376.86 86.9179 377.733 85.5318 378.901 84.4179C380.068 83.304 381.493 82.497 383.049 82.0691C387.271 80.9569 391.663 80.6447 395.999 81.1485C397.381 81.3095 398.651 81.9843 399.558 83.039C400.465 84.0936 400.942 85.4508 400.894 86.8409C400.894 105.483 414.442 118.924 433.514 117.743C453.292 116.546 472.041 100.144 477.289 80.1972C477.667 78.8163 478.361 77.5426 479.317 76.4772C480.274 75.4118 481.465 74.5841 482.797 74.0598L486.127 72.7863C486.592 72.6277 487.006 72.3479 487.327 71.9757C487.648 71.6035 487.864 71.1524 487.953 70.6689L488.935 64.5315C489.014 64.2773 489.027 64.0067 488.97 63.7464C488.913 63.4861 488.79 63.2449 488.612 63.0467C488.434 62.8486 488.207 62.7002 487.954 62.6161C487.702 62.5321 487.431 62.5154 487.17 62.5676V62.5676ZM334.119 118.771C315.707 119.906 303.263 105.453 306.24 86.5494C309.217 67.6462 326.585 51.2594 344.952 50.2007C363.318 49.142 375.807 63.5188 372.815 82.422C369.823 101.325 352.485 117.635 334.119 118.771ZM378.293 78.4327C378.365 77.4098 378.395 76.3511 378.385 75.2566C378.404 74.8193 378.578 74.4031 378.876 74.0825C379.174 73.762 379.577 73.5581 380.011 73.5074L401.983 72.1572C402.174 72.1391 402.366 72.1709 402.541 72.2495C402.716 72.3282 402.867 72.4509 402.98 72.6056C403.093 72.7604 403.164 72.9419 403.185 73.1323C403.207 73.3227 403.179 73.5154 403.103 73.6916C402.766 74.7503 402.459 75.8089 402.183 76.883C392.731 74.1365 383.295 76.6068 378.293 78.4327ZM434.327 112.557C415.915 113.692 403.472 99.2384 406.463 80.3353C409.455 61.4321 426.794 45.0453 445.16 43.9866C463.526 42.9279 476.015 57.3048 473.039 76.2079C470.062 95.111 452.739 111.421 434.327 112.557Z" fill="black" fill-opacity="0.7"/>
<path d="M471.413 66.3881L330.621 85.0764C327.297 85.5178 324.102 86.6512 321.242 88.4034C318.383 90.1555 315.922 92.4876 314.02 95.2491L293.413 125.23C293.224 125.509 293.101 125.827 293.052 126.16C293.002 126.493 293.029 126.833 293.129 127.154C293.229 127.475 293.401 127.77 293.631 128.016C293.861 128.262 294.143 128.453 294.457 128.575V128.575C295.837 129.106 297.356 129.155 298.768 128.715C300.179 128.275 301.401 127.372 302.236 126.151L321.292 98.5326C322.426 96.8792 323.891 95.4797 325.595 94.4231C327.299 93.3665 329.204 92.6759 331.189 92.3952L471.919 72.4487L471.413 66.3881Z" fill="#263238"/>
<path d="M281.476 78.2332L423.464 75.8856C426.822 75.8384 430.152 76.4969 433.239 77.8184C436.327 79.14 439.102 81.0952 441.385 83.5574L466.211 110.163C466.44 110.409 466.61 110.704 466.708 111.026C466.807 111.347 466.831 111.687 466.779 112.019C466.728 112.352 466.601 112.668 466.41 112.944C466.218 113.221 465.967 113.45 465.674 113.615C464.389 114.347 462.895 114.625 461.433 114.402C459.971 114.179 458.627 113.469 457.619 112.388L434.68 87.8382C433.308 86.3671 431.644 85.198 429.795 84.4055C427.946 83.613 425.952 83.2144 423.94 83.2352L281.798 84.3092L281.476 78.2332Z" fill="#263238"/>
<path d="M367.537 87.2705C369.286 87.5927 369.21 99.5453 365.251 103.581C361.292 107.616 357.242 97.7961 358.27 94.2671C359.298 90.7381 362.06 86.2272 367.537 87.2705Z" fill="#92E3A9" stroke="#263238" stroke-linecap="round" stroke-linejoin="round"/>
<path d="M392.209 85.7362C390.522 86.2885 392.071 98.0109 396.49 101.647C400.909 105.284 403.732 94.9115 402.275 91.5513C400.817 88.1911 397.503 84.033 392.209 85.7362Z" fill="#92E3A9" stroke="#263238" stroke-linecap="round" stroke-linejoin="round"/>
<path opacity="0.5" d="M304.245 59.2994C311.672 52.9472 327.399 42.1301 344.614 52.4255C361.829 62.721 367.767 73.9064 364.238 89.0504C360.709 104.194 349.862 124.448 324.345 120.919C298.829 117.39 281.184 79.0311 304.245 59.2994Z" fill="#92E3A9"/>
<path opacity="0.5" d="M404.638 54.4048C412.064 48.0526 427.776 37.2202 444.991 47.5156C462.206 57.8111 468.159 68.9965 464.615 84.1405C461.071 99.2844 450.254 119.538 424.722 116.009C399.191 112.48 381.561 74.0598 404.638 54.4048Z" fill="#92E3A9"/>
<path d="M474.343 64.24L471.873 64.3934C470.649 64.4742 469.428 64.1965 468.36 63.5943C467.292 62.992 466.422 62.0913 465.858 61.0025C459.015 47.6844 443.349 40.2275 427.377 41.2094C420.322 41.6695 413.503 43.9273 407.567 47.7678C401.632 51.6084 396.778 56.9039 393.468 63.1506C392.673 64.7746 391.468 66.1628 389.972 67.1775C388.475 68.1922 386.739 68.798 384.937 68.9351L372.662 69.6869C370.852 69.782 369.049 69.3998 367.433 68.5784C365.817 67.7571 364.446 66.5255 363.456 65.0071C359.399 59.2168 353.927 54.5611 347.562 51.4832C341.197 48.4054 334.15 47.0078 327.092 47.4235C311.119 48.4209 296.497 57.7497 291.357 71.8196C290.929 72.9684 290.176 73.9677 289.19 74.6953C288.204 75.4228 287.026 75.8472 285.803 75.9163L283.332 76.0698C282.793 76.1053 282.291 76.3529 281.934 76.7584C281.577 77.1639 281.396 77.6942 281.43 78.2332L281.798 84.2325C281.829 84.6811 282.007 85.1071 282.303 85.4452C282.6 85.7833 282.999 86.0149 283.44 86.1044L286.662 86.9636C287.912 87.28 289.044 87.9484 289.926 88.8894C290.807 89.8304 291.399 91.0046 291.633 92.2725C293.096 101.525 297.895 109.922 305.124 115.88C312.352 121.839 321.512 124.945 330.873 124.615C340.235 124.285 349.153 120.54 355.943 114.087C362.734 107.635 366.929 98.9201 367.737 89.5874C367.905 88.1384 368.51 86.7751 369.472 85.6787C370.434 84.5823 371.707 83.8049 373.122 83.45C377.333 82.3381 381.715 82.0258 386.041 82.5294C387.505 82.7172 388.876 83.3465 389.972 84.3333C391.069 85.3201 391.838 86.6177 392.179 88.053C394.087 97.2613 399.312 105.448 406.861 111.057C414.409 116.665 423.755 119.306 433.122 118.477C442.489 117.647 451.226 113.406 457.671 106.558C464.116 99.71 467.822 90.733 468.083 81.3326C468.152 80.0504 468.588 78.815 469.338 77.7733C470.089 76.7315 471.123 75.9272 472.318 75.456L475.386 74.1979C475.812 74.0545 476.178 73.7759 476.43 73.4047C476.682 73.0335 476.806 72.59 476.783 72.1418L476.399 66.1426C476.371 65.6203 476.141 65.1293 475.757 64.7741C475.373 64.4189 474.866 64.2272 474.343 64.24V64.24ZM331.526 119.062C324.938 119.472 318.377 117.919 312.672 114.598C306.968 111.278 302.377 106.339 299.48 100.408C296.584 94.4775 295.512 87.8205 296.4 81.28C297.289 74.7395 300.097 68.6097 304.471 63.6663C308.845 58.723 314.587 55.1883 320.971 53.5098C327.354 51.8313 334.092 52.0844 340.332 54.2371C346.572 56.3897 352.032 60.3451 356.023 65.6027C360.014 70.8602 362.355 77.1835 362.75 83.7722C363.267 92.587 360.272 101.248 354.421 107.861C348.57 114.474 340.338 118.501 331.526 119.062ZM367.43 79.8443C367.261 78.8009 367.062 77.7729 366.816 76.7756C366.768 76.5781 366.765 76.3727 366.806 76.1737C366.847 75.9748 366.931 75.7873 367.053 75.6247C367.174 75.462 367.33 75.3282 367.509 75.2328C367.689 75.1373 367.887 75.0826 368.09 75.0725L390.061 73.7069C390.269 73.6822 390.479 73.7049 390.677 73.7733C390.874 73.8417 391.053 73.954 391.201 74.1017C391.349 74.2494 391.461 74.4287 391.529 74.6261C391.598 74.8235 391.62 75.0338 391.596 75.2412C391.488 76.2539 391.412 77.2972 391.366 78.3099C383.436 76.3344 375.088 76.8706 367.476 79.8443H367.43ZM431.78 112.848C425.192 113.258 418.631 111.705 412.927 108.384C407.222 105.064 402.631 100.125 399.734 94.1944C396.838 88.2634 395.766 81.6064 396.654 75.0659C397.543 68.5254 400.352 62.3956 404.725 57.4522C409.099 52.5089 414.841 48.9742 421.225 47.2957C427.608 45.6172 434.346 45.8703 440.586 48.023C446.826 50.1756 452.286 54.131 456.277 59.3886C460.268 64.6461 462.609 70.9694 463.004 77.5581C463.525 86.3664 460.538 95.023 454.696 101.636C448.854 108.248 440.632 112.28 431.826 112.848H431.78Z" fill="#757575" stroke="#263238" stroke-linecap="round" stroke-linejoin="round"/>
<path opacity="0.4" d="M306.976 107.263C306.976 107.263 294.702 91.0143 303.355 72.1418C311.165 55.172 329.439 53.2387 338.108 56.7984L319.251 89.8175C320.986 81.7523 323.584 73.8972 327 66.388C327 66.388 310.337 83.2658 306.976 107.263Z" fill="white"/>
<path opacity="0.4" d="M406.985 100.144C406.985 100.144 394.711 83.9103 403.364 65.0379C411.174 48.0527 429.448 46.1194 438.102 49.6944L419.183 82.6521C420.61 70.8223 427.009 59.2534 427.009 59.2534C427.009 59.2534 410.33 76.1158 406.985 100.144Z" fill="white"/>
<path opacity="0.2" d="M47.0583 386.821L51.5079 406.813L56.5866 384.182L43.2378 158.127H34.1392L47.0583 386.821Z" fill="black" fill-opacity="0.7"/>
<path d="M38.9265 155.38L51.5081 382.77L46.9051 401.474L40.246 383.399L27.6337 155.994C27.6045 155.615 27.6512 155.235 27.771 154.874C27.8908 154.514 28.0813 154.181 28.3314 153.895C28.5814 153.609 28.886 153.376 29.2273 153.21C29.5686 153.043 29.9396 152.947 30.3188 152.925L35.9192 152.618C36.299 152.598 36.6791 152.653 37.0372 152.782C37.3953 152.91 37.7241 153.109 38.0043 153.366C38.2845 153.623 38.5104 153.934 38.6688 154.28C38.8271 154.626 38.9148 155 38.9265 155.38V155.38Z" fill="#92E3A9"/>
<path opacity="0.2" d="M46.8741 401.474L40.2151 383.399L27.6334 155.994C27.6043 155.615 27.6509 155.235 27.7707 154.874C27.8905 154.514 28.0811 154.181 28.3311 153.895C28.5812 153.609 28.8858 153.376 29.227 153.21C29.5683 153.043 29.9394 152.946 30.3185 152.925H31.1011L43.7748 381.988L46.8741 401.474Z" fill="black" fill-opacity="0.7"/>
<path d="M38.9265 155.38L51.5081 382.77L46.9051 401.474L40.246 383.399L27.6337 155.994C27.6045 155.615 27.6512 155.235 27.771 154.874C27.8908 154.514 28.0813 154.181 28.3314 153.895C28.5814 153.609 28.886 153.376 29.2273 153.21C29.5686 153.043 29.9396 152.947 30.3188 152.925L35.9192 152.618C36.299 152.598 36.6791 152.653 37.0372 152.782C37.3953 152.91 37.7241 153.109 38.0043 153.366C38.2845 153.623 38.5104 153.934 38.6688 154.28C38.8271 154.626 38.9148 155 38.9265 155.38V155.38Z" stroke="#263238" stroke-linecap="round" stroke-linejoin="round"/>
<path d="M31.3159 156.914L43.5907 380.146C43.6044 380.4 43.6681 380.649 43.7782 380.879C43.8882 381.108 44.0425 381.313 44.232 381.483C44.4216 381.652 44.6428 381.783 44.8829 381.867C45.1231 381.951 45.3774 381.987 45.6314 381.972H46.9816" fill="#92E3A9"/>
<path d="M31.3159 156.914L43.5907 380.146C43.6044 380.4 43.6681 380.649 43.7782 380.879C43.8882 381.108 44.0425 381.313 44.232 381.483C44.4216 381.652 44.6428 381.783 44.8829 381.867C45.1231 381.951 45.3774 381.987 45.6314 381.972H46.9816" stroke="#263238" stroke-linecap="round" stroke-linejoin="round"/>
<path opacity="0.2" d="M87.181 429.199L128.777 157.421C130.059 149.065 134.607 141.561 141.42 136.558C148.233 131.554 156.754 129.461 165.11 130.739L564.516 191.882C568.654 192.513 572.627 193.953 576.208 196.12C579.789 198.287 582.909 201.138 585.388 204.511C587.867 207.883 589.658 211.711 590.657 215.776C591.657 219.841 591.846 224.062 591.213 228.2L549.602 499.979C548.975 504.119 547.537 508.095 545.372 511.679C543.206 515.263 540.355 518.385 536.982 520.866C533.609 523.347 529.779 525.138 525.713 526.138C521.647 527.138 517.423 527.326 513.284 526.692L113.863 465.533C105.508 464.251 98.0036 459.703 93.0001 452.89C87.9966 446.077 85.9036 437.555 87.181 429.199V429.199Z" fill="black" fill-opacity="0.7"/>
<path d="M119.236 167.646L122.395 147.004C122.457 146.602 122.675 146.24 123.003 145.999C123.331 145.758 123.742 145.658 124.144 145.719L132.85 147.051L129.229 170.712L120.523 169.38C120.124 169.318 119.764 169.102 119.523 168.777C119.282 168.453 119.179 168.046 119.236 167.646Z" fill="#92E3A9" stroke="#263238" stroke-linecap="round" stroke-linejoin="round"/>
<path d="M173.314 124.171L193.956 127.329C194.359 127.391 194.72 127.61 194.961 127.938C195.202 128.266 195.303 128.676 195.241 129.078L193.909 137.784L170.248 134.163L171.581 125.458C171.642 125.058 171.858 124.699 172.183 124.458C172.507 124.217 172.914 124.114 173.314 124.171V124.171Z" fill="#92E3A9" stroke="#263238" stroke-linecap="round" stroke-linejoin="round"/>
<path d="M201.447 128.468L222.089 131.626C222.492 131.688 222.853 131.907 223.094 132.235C223.335 132.563 223.436 132.973 223.374 133.375L222.042 142.081L198.382 138.46L199.714 129.754C199.775 129.355 199.991 128.995 200.316 128.754C200.64 128.514 201.047 128.41 201.447 128.468V128.468Z" fill="#92E3A9" stroke="#263238" stroke-linecap="round" stroke-linejoin="round"/>
<path d="M82.5782 423.062L124.174 151.283C125.456 142.928 130.004 135.424 136.817 130.42C143.63 125.417 152.152 123.324 160.508 124.601L559.913 185.745C564.051 186.376 568.024 187.816 571.605 189.983C575.187 192.15 578.306 195.001 580.785 198.373C583.264 201.746 585.055 205.574 586.054 209.639C587.054 213.703 587.243 217.925 586.611 222.063L544.999 493.841C544.372 497.981 542.934 501.957 540.769 505.541C538.603 509.125 535.752 512.247 532.379 514.728C529.006 517.209 525.177 519.001 521.11 520.001C517.044 521 512.82 521.188 508.681 520.554L109.26 459.395C100.905 458.113 93.4008 453.566 88.3973 446.753C83.3939 439.939 81.3008 431.418 82.5782 423.062V423.062Z" fill="#92E3A9" stroke="#263238" stroke-linecap="round" stroke-linejoin="round"/>
<path d="M510.246 517.163L108.769 455.713C105.229 455.174 101.83 453.942 98.7666 452.088C95.7029 450.234 93.0346 447.795 90.9143 444.909C88.7939 442.024 87.2631 438.749 86.4092 435.271C85.5554 431.794 85.3954 428.182 85.9383 424.642L127.857 150.777C128.95 143.629 132.837 137.209 138.664 132.927C144.49 128.646 151.779 126.854 158.927 127.946L560.419 189.397C567.566 190.497 573.984 194.389 578.265 200.217C582.546 206.045 584.338 213.333 583.25 220.482L541.332 494.332C540.791 497.873 539.557 501.272 537.702 504.336C535.847 507.4 533.406 510.068 530.519 512.188C527.632 514.309 524.356 515.839 520.878 516.693C517.399 517.546 513.786 517.706 510.246 517.163Z" fill="#757575" stroke="#263238" stroke-linecap="round" stroke-linejoin="round"/>
<path d="M113.649 288.745C113.598 289.042 113.46 289.318 113.254 289.537C113.048 289.756 112.781 289.91 112.488 289.979C112.195 290.048 111.888 290.029 111.605 289.925C111.322 289.821 111.077 289.636 110.899 289.393C110.721 289.15 110.618 288.86 110.604 288.559C110.589 288.258 110.664 287.959 110.818 287.701C110.972 287.442 111.199 287.234 111.471 287.103C111.742 286.973 112.046 286.925 112.344 286.966C112.548 286.993 112.745 287.062 112.922 287.168C113.098 287.273 113.252 287.413 113.374 287.579C113.496 287.745 113.583 287.934 113.63 288.134C113.677 288.335 113.683 288.542 113.649 288.745Z" fill="#999999" stroke="#263238" stroke-linecap="round" stroke-linejoin="round"/>
<path d="M112.897 303.03C112.742 303.782 112.305 304.445 111.675 304.883C111.045 305.321 110.271 305.501 109.513 305.384C108.755 305.268 108.07 304.865 107.6 304.259C107.131 303.652 106.912 302.888 106.99 302.125C107.144 301.373 107.582 300.71 108.211 300.272C108.841 299.834 109.615 299.654 110.373 299.771C111.132 299.887 111.816 300.29 112.286 300.896C112.756 301.503 112.974 302.267 112.897 303.03V303.03Z" fill="#263238"/>
<path d="M118.16 268.645C118.005 269.397 117.568 270.06 116.938 270.498C116.308 270.936 115.534 271.116 114.776 271C114.018 270.884 113.333 270.48 112.863 269.874C112.394 269.267 112.175 268.503 112.252 267.74C112.293 267.337 112.416 266.945 112.613 266.591C112.81 266.236 113.077 265.925 113.397 265.676C113.718 265.428 114.086 265.248 114.479 265.146C114.872 265.044 115.281 265.023 115.682 265.085C116.083 265.146 116.468 265.289 116.812 265.503C117.156 265.718 117.453 266 117.685 266.333C117.917 266.667 118.078 267.043 118.16 267.441C118.241 267.838 118.241 268.248 118.16 268.645V268.645Z" fill="#263238"/>
<path d="M110.58 312.681C110.514 313.107 110.324 313.504 110.033 313.821C109.742 314.139 109.364 314.363 108.945 314.466C108.527 314.568 108.088 314.544 107.683 314.397C107.278 314.25 106.926 313.987 106.671 313.639C106.416 313.292 106.269 312.877 106.25 312.447C106.231 312.017 106.339 311.59 106.562 311.222C106.785 310.853 107.113 310.559 107.503 310.376C107.893 310.194 108.328 310.131 108.754 310.196C109.037 310.239 109.309 310.337 109.554 310.485C109.799 310.634 110.013 310.829 110.183 311.06C110.352 311.291 110.475 311.553 110.543 311.831C110.611 312.109 110.624 312.398 110.58 312.681V312.681Z" fill="#263238"/>
<path d="M573.17 215.772L530.316 495.821C529.775 499.35 527.855 502.52 524.978 504.635C522.101 506.749 518.502 507.635 514.972 507.098L178.628 455.621L171.34 454.577L143.921 450.373L130.649 448.348L111.47 445.371L107.281 444.727C103.752 444.186 100.582 442.266 98.4671 439.389C96.3525 436.512 95.4665 432.913 96.0038 429.383L138.873 149.243C139.139 147.495 139.747 145.816 140.663 144.304C141.578 142.791 142.783 141.474 144.208 140.428C145.634 139.382 147.251 138.627 148.969 138.207C150.686 137.787 152.47 137.71 154.217 137.981L279.772 157.191L298.768 160.106L316.919 162.883L340.241 166.443L348.68 167.732L561.954 200.367C563.702 200.642 565.379 201.258 566.889 202.181C568.398 203.104 569.712 204.315 570.753 205.746C571.795 207.176 572.544 208.798 572.959 210.519C573.374 212.239 573.445 214.024 573.17 215.772V215.772Z" fill="#263238"/>
<g opacity="0.1">
<path opacity="0.1" d="M257.877 453.043L115.183 431.209C114.256 431.066 113.423 430.56 112.868 429.804C112.313 429.047 112.081 428.102 112.222 427.174L126.384 334.607C126.531 333.679 127.04 332.846 127.799 332.291C128.557 331.736 129.505 331.504 130.434 331.646L273.128 353.479C273.588 353.549 274.03 353.708 274.428 353.949C274.826 354.189 275.173 354.506 275.448 354.881C275.723 355.256 275.922 355.682 276.032 356.134C276.142 356.586 276.162 357.055 276.09 357.515L261.928 450.082C261.857 450.542 261.695 450.984 261.453 451.383C261.211 451.781 260.893 452.128 260.517 452.403C260.14 452.678 259.714 452.876 259.261 452.986C258.808 453.096 258.338 453.115 257.877 453.043ZM130.296 332.873C129.997 332.827 129.692 332.841 129.398 332.914C129.104 332.986 128.827 333.116 128.583 333.295C128.34 333.475 128.134 333.701 127.977 333.96C127.821 334.219 127.718 334.507 127.673 334.806L113.511 427.358C113.465 427.657 113.479 427.963 113.551 428.257C113.623 428.551 113.753 428.827 113.933 429.071C114.112 429.315 114.338 429.521 114.598 429.677C114.857 429.833 115.144 429.937 115.444 429.982L258.061 451.816C258.36 451.861 258.666 451.848 258.96 451.775C259.254 451.703 259.53 451.573 259.774 451.393C260.018 451.214 260.224 450.988 260.38 450.729C260.536 450.469 260.64 450.182 260.685 449.882L274.862 357.331C274.951 356.725 274.798 356.109 274.436 355.615C274.074 355.122 273.533 354.79 272.929 354.692L130.296 332.873Z" fill="white"/>
</g>
<path opacity="0.4" d="M173.334 388.892L205.28 407.013C208.662 400.809 210.234 393.781 209.816 386.728C209.399 379.674 207.008 372.88 202.917 367.12L173.334 388.892Z" fill="#92E3A9"/>
<path opacity="0.6" d="M173.641 387.066L202.18 366.092C198.323 361.011 193.239 356.993 187.404 354.415L181.773 367.764L173.641 387.066Z" fill="#92E3A9"/>
<path d="M178.506 351.776L173.565 383.998L186.269 353.878C183.763 352.905 181.161 352.2 178.506 351.776V351.776Z" fill="#92E3A9"/>
<path opacity="0.1" d="M171.647 388.509L177.278 351.684C170.811 350.8 164.225 351.612 158.166 354.04C152.107 356.468 146.783 360.429 142.716 365.534C138.649 370.64 135.978 376.714 134.965 383.162C133.953 389.611 134.633 396.212 136.94 402.318L171.647 388.509Z" fill="white"/>
<path opacity="0.2" d="M166.492 426.192C173.937 427.331 181.552 426.213 188.356 422.983C195.16 419.753 200.841 414.56 204.666 408.071L172.153 389.659L137.385 403.392C139.867 409.374 143.85 414.615 148.948 418.609C154.047 422.603 160.089 425.214 166.492 426.192Z" fill="#92E3A9"/>
<path d="M231.426 366.731L227.195 366.084C226.667 366.003 226.174 366.365 226.093 366.893L225.445 371.125C225.365 371.652 225.727 372.146 226.255 372.226L230.486 372.874C231.014 372.955 231.507 372.592 231.588 372.064L232.235 367.833C232.316 367.305 231.954 366.812 231.426 366.731Z" fill="#92E3A9"/>
<path d="M254.425 372.567L235.936 369.728C235.843 369.715 235.753 369.683 235.672 369.635C235.592 369.587 235.521 369.523 235.465 369.447C235.41 369.372 235.37 369.286 235.348 369.194C235.326 369.103 235.322 369.008 235.337 368.915C235.351 368.822 235.382 368.732 235.43 368.651C235.478 368.571 235.542 368.5 235.618 368.445C235.694 368.389 235.78 368.349 235.871 368.327C235.963 368.305 236.058 368.301 236.151 368.316L254.563 371.155C254.656 371.168 254.746 371.2 254.826 371.248C254.907 371.296 254.977 371.36 255.033 371.436C255.089 371.511 255.129 371.598 255.151 371.689C255.173 371.78 255.176 371.875 255.161 371.968C255.129 372.139 255.037 372.292 254.902 372.402C254.767 372.511 254.598 372.57 254.425 372.567V372.567Z" fill="#92E3A9"/>
<path d="M248.303 374.791L235.46 372.828C235.367 372.814 235.277 372.783 235.197 372.735C235.116 372.687 235.046 372.623 234.99 372.547C234.934 372.471 234.894 372.385 234.872 372.294C234.85 372.202 234.847 372.107 234.862 372.014C234.892 371.828 234.994 371.661 235.146 371.549C235.298 371.437 235.488 371.389 235.675 371.416L248.518 373.38C248.611 373.393 248.7 373.425 248.781 373.473C248.862 373.521 248.932 373.585 248.988 373.661C249.044 373.736 249.084 373.822 249.106 373.914C249.128 374.005 249.131 374.1 249.116 374.193C249.103 374.286 249.071 374.376 249.023 374.457C248.975 374.537 248.911 374.608 248.835 374.663C248.76 374.719 248.673 374.759 248.582 374.781C248.49 374.803 248.396 374.807 248.303 374.791V374.791Z" fill="#92E3A9"/>
<path opacity="0.6" d="M229.325 380.478L225.093 379.831C224.566 379.75 224.072 380.112 223.992 380.64L223.344 384.872C223.263 385.399 223.626 385.893 224.154 385.974L228.385 386.621C228.913 386.702 229.406 386.339 229.487 385.812L230.134 381.58C230.215 381.052 229.853 380.559 229.325 380.478Z" fill="#92E3A9"/>
<path d="M252.323 386.299L233.819 383.476C233.634 383.442 233.469 383.339 233.358 383.188C233.247 383.037 233.198 382.849 233.22 382.663C233.25 382.476 233.353 382.309 233.505 382.197C233.657 382.086 233.847 382.038 234.033 382.064L252.538 384.903C252.629 384.917 252.717 384.949 252.797 384.997C252.876 385.045 252.945 385.108 253 385.183C253.055 385.258 253.094 385.343 253.116 385.433C253.138 385.523 253.142 385.617 253.128 385.708C253.114 385.8 253.082 385.888 253.034 385.967C252.986 386.047 252.923 386.116 252.848 386.171C252.773 386.225 252.688 386.265 252.598 386.287C252.508 386.309 252.415 386.313 252.323 386.299V386.299Z" fill="#92E3A9"/>
<path d="M246.201 388.508L233.328 386.545C233.161 386.494 233.019 386.386 232.926 386.239C232.833 386.093 232.797 385.917 232.823 385.746C232.849 385.574 232.936 385.417 233.068 385.305C233.2 385.192 233.369 385.131 233.542 385.133L246.385 387.097C246.478 387.11 246.568 387.142 246.648 387.19C246.729 387.238 246.799 387.302 246.855 387.378C246.911 387.453 246.951 387.539 246.973 387.631C246.995 387.722 246.998 387.817 246.983 387.91C246.957 388.092 246.86 388.257 246.714 388.368C246.567 388.48 246.383 388.53 246.201 388.508Z" fill="#92E3A9"/>
<path opacity="0.4" d="M228.183 394.513L223.945 393.871C223.416 393.791 222.923 394.155 222.843 394.683L222.2 398.921C222.12 399.45 222.484 399.943 223.012 400.023L227.25 400.665C227.779 400.745 228.272 400.382 228.352 399.853L228.995 395.615C229.075 395.087 228.711 394.593 228.183 394.513Z" fill="#92E3A9"/>
<path d="M250.206 400.047L231.793 397.224C231.627 397.173 231.485 397.065 231.392 396.918C231.299 396.772 231.262 396.596 231.288 396.425C231.315 396.253 231.402 396.096 231.534 395.984C231.666 395.871 231.835 395.81 232.008 395.812L250.42 398.635C250.513 398.648 250.603 398.68 250.684 398.728C250.765 398.776 250.835 398.84 250.891 398.916C250.946 398.992 250.987 399.078 251.009 399.169C251.03 399.261 251.034 399.356 251.019 399.448C251.006 399.542 250.974 399.631 250.926 399.712C250.878 399.793 250.814 399.863 250.738 399.919C250.662 399.974 250.576 400.015 250.485 400.037C250.393 400.059 250.298 400.062 250.206 400.047V400.047Z" fill="#92E3A9"/>
<path d="M244.068 402.256L231.226 400.292C231.059 400.242 230.917 400.134 230.824 399.987C230.731 399.84 230.694 399.665 230.721 399.493C230.747 399.322 230.834 399.165 230.966 399.053C231.098 398.94 231.267 398.879 231.44 398.881L244.283 400.845C244.449 400.895 244.592 401.003 244.684 401.15C244.777 401.297 244.814 401.472 244.788 401.644C244.762 401.815 244.674 401.972 244.542 402.084C244.41 402.197 244.242 402.258 244.068 402.256V402.256Z" fill="#92E3A9"/>
<path opacity="0.2" d="M225.122 407.973L220.891 407.325C220.363 407.245 219.87 407.607 219.789 408.135L219.142 412.366C219.061 412.894 219.423 413.387 219.951 413.468L224.182 414.116C224.71 414.196 225.203 413.834 225.284 413.306L225.932 409.075C226.012 408.547 225.65 408.054 225.122 407.973Z" fill="#92E3A9"/>
<path d="M248.103 413.795L229.691 410.971C229.505 410.941 229.338 410.839 229.226 410.687C229.114 410.535 229.066 410.345 229.093 410.158C229.106 410.065 229.137 409.975 229.185 409.895C229.234 409.814 229.297 409.744 229.373 409.688C229.449 409.632 229.535 409.592 229.627 409.57C229.718 409.548 229.813 409.545 229.906 409.56L248.395 412.383C248.488 412.396 248.577 412.428 248.658 412.476C248.739 412.524 248.809 412.588 248.865 412.664C248.921 412.739 248.961 412.825 248.983 412.917C249.005 413.008 249.008 413.103 248.993 413.196C248.981 413.297 248.948 413.395 248.895 413.482C248.842 413.569 248.77 413.643 248.686 413.7C248.601 413.757 248.505 413.795 248.405 413.811C248.304 413.827 248.201 413.822 248.103 413.795V413.795Z" fill="#92E3A9"/>
<path d="M241.997 416.004L229.154 414.04C229.061 414.027 228.971 413.995 228.891 413.947C228.81 413.899 228.739 413.835 228.684 413.759C228.628 413.684 228.588 413.597 228.566 413.506C228.544 413.415 228.54 413.32 228.556 413.227C228.569 413.134 228.6 413.044 228.649 412.963C228.697 412.882 228.761 412.812 228.836 412.756C228.912 412.701 228.998 412.661 229.09 412.639C229.181 412.617 229.276 412.613 229.369 412.628L242.211 414.592C242.398 414.623 242.565 414.725 242.677 414.877C242.789 415.029 242.836 415.219 242.81 415.406C242.797 415.499 242.765 415.588 242.717 415.669C242.669 415.75 242.605 415.82 242.529 415.876C242.453 415.932 242.367 415.972 242.276 415.994C242.184 416.016 242.089 416.019 241.997 416.004V416.004Z" fill="#92E3A9"/>
<path opacity="0.1" d="M223.021 421.735L218.79 421.088C218.262 421.007 217.769 421.37 217.688 421.897L217.04 426.129C216.959 426.657 217.322 427.15 217.85 427.231L222.081 427.878C222.609 427.959 223.102 427.597 223.183 427.069L223.83 422.837C223.911 422.31 223.549 421.816 223.021 421.735Z" fill="white"/>
<path d="M246.001 427.542L227.589 424.719C227.403 424.689 227.236 424.587 227.124 424.435C227.012 424.283 226.964 424.093 226.991 423.906C227.004 423.813 227.035 423.723 227.083 423.642C227.132 423.562 227.195 423.491 227.271 423.435C227.347 423.38 227.433 423.34 227.525 423.318C227.616 423.296 227.711 423.292 227.804 423.307L246.293 426.131C246.386 426.144 246.475 426.175 246.556 426.223C246.637 426.272 246.707 426.336 246.763 426.411C246.819 426.487 246.859 426.573 246.881 426.665C246.903 426.756 246.906 426.851 246.891 426.944C246.879 427.045 246.846 427.143 246.793 427.23C246.74 427.317 246.668 427.391 246.584 427.448C246.499 427.505 246.403 427.543 246.303 427.559C246.202 427.575 246.099 427.57 246.001 427.542V427.542Z" fill="#92E3A9"/>
<path d="M239.894 429.752L227.037 427.788C226.945 427.773 226.857 427.74 226.778 427.691C226.699 427.642 226.63 427.578 226.576 427.502C226.522 427.427 226.483 427.341 226.462 427.251C226.441 427.16 226.438 427.066 226.454 426.975C226.465 426.881 226.495 426.79 226.542 426.708C226.59 426.626 226.654 426.555 226.73 426.499C226.806 426.443 226.893 426.403 226.986 426.382C227.078 426.361 227.174 426.359 227.267 426.376L240.109 428.34C240.212 428.341 240.314 428.364 240.408 428.408C240.502 428.452 240.585 428.515 240.652 428.594C240.719 428.672 240.768 428.765 240.796 428.864C240.824 428.963 240.831 429.068 240.815 429.17C240.8 429.272 240.763 429.369 240.706 429.456C240.649 429.542 240.575 429.616 240.488 429.671C240.4 429.726 240.302 429.762 240.2 429.776C240.097 429.79 239.993 429.782 239.894 429.752V429.752Z" fill="#92E3A9"/>
<g opacity="0.1">
<path opacity="0.1" d="M526.633 392.252L294.702 356.763C293.772 356.622 292.825 356.854 292.066 357.408C291.307 357.963 290.798 358.796 290.651 359.724L289.669 366.107L289.485 367.335L288.165 375.942L287.981 377.17L286.662 385.762L286.477 386.974L285.158 395.582L284.974 396.794L283.654 405.402L283.47 406.629L282.151 415.221L281.966 416.449L280.647 425.041L280.463 426.269L279.143 434.861L278.959 436.089L277.64 444.681L277.455 445.908L276.489 452.291C276.417 452.752 276.436 453.222 276.546 453.675C276.656 454.128 276.854 454.555 277.129 454.931C277.404 455.307 277.751 455.625 278.149 455.867C278.547 456.11 278.99 456.271 279.45 456.342L511.336 491.831C512.263 491.968 513.207 491.731 513.96 491.173C514.714 490.615 515.216 489.782 515.356 488.855L516.338 482.472L516.522 481.244L517.841 472.652L518.026 471.425L519.345 462.817L519.529 461.605L520.849 453.012L521.033 451.785L522.352 443.193L522.536 441.965L523.856 433.357L524.04 432.145L525.36 423.538L525.544 422.325L526.863 413.733L527.047 412.506L528.367 403.898L528.551 402.671L529.533 396.288C529.675 395.369 529.451 394.431 528.909 393.677C528.366 392.922 527.549 392.41 526.633 392.252V392.252ZM514.205 488.671C514.11 489.273 513.782 489.815 513.291 490.177C512.799 490.538 512.185 490.692 511.581 490.604L279.711 455.114C279.104 455.02 278.559 454.69 278.194 454.195C277.829 453.701 277.674 453.083 277.762 452.475L278.744 446.092L515.172 482.288L514.205 488.671ZM515.371 480.999L278.928 444.819L280.248 436.211L516.675 472.407L515.371 480.999ZM516.905 471.179L280.432 435.061L281.752 426.453L518.179 462.633L516.905 471.179ZM518.44 461.359L281.997 425.164L283.317 416.572L519.744 452.752L518.44 461.359ZM519.974 451.539L283.532 415.344L284.851 406.752L521.278 442.947L519.974 451.539ZM521.508 441.72L285.066 405.524L286.385 396.917L522.813 433.112L521.508 441.72ZM523.043 431.884L286.6 395.705L287.92 387.112L524.347 423.292L523.043 431.884ZM524.577 422.065L287.95 385.946L289.27 377.354L525.697 413.534L524.577 422.065ZM526.112 412.26L289.454 376.126L290.774 367.519L527.201 403.714L526.112 412.26ZM291.188 366.23L292.17 359.862C292.215 359.563 292.318 359.275 292.475 359.016C292.631 358.757 292.837 358.531 293.081 358.351C293.324 358.172 293.601 358.042 293.895 357.969C294.189 357.897 294.494 357.883 294.794 357.929L526.388 393.48C526.99 393.574 527.529 393.903 527.889 394.395C528.248 394.887 528.398 395.501 528.306 396.104L527.324 402.486L291.188 366.23Z" fill="white"/>
</g>
<g opacity="0.1">
<path opacity="0.1" d="M551.397 227.065L156.273 166.581C155.748 166.5 155.212 166.524 154.696 166.651C154.18 166.778 153.695 167.005 153.267 167.32C152.839 167.636 152.478 168.032 152.204 168.487C151.93 168.942 151.748 169.446 151.67 169.972L129.529 314.614C129.37 315.672 129.636 316.749 130.268 317.612C130.901 318.474 131.848 319.051 132.905 319.217L528.045 379.701C529.102 379.86 530.179 379.594 531.042 378.962C531.904 378.33 532.481 377.382 532.648 376.326L554.788 231.668C554.869 231.143 554.845 230.607 554.718 230.091C554.591 229.575 554.364 229.09 554.049 228.662C553.733 228.235 553.337 227.873 552.882 227.599C552.427 227.325 551.923 227.143 551.397 227.065V227.065ZM229.185 247.855L256.619 252.044L254.225 267.633L226.745 263.429L229.185 247.855ZM225.579 263.199L198.038 259.071L200.431 243.467L227.911 247.671L225.579 263.199ZM257.877 252.259L285.373 256.463L282.979 272.067L255.499 267.863L257.877 252.259ZM400.387 272.819L372.907 268.615L375.285 253.011L402.781 257.215L400.387 272.819ZM403.993 257.475L431.488 261.68L429.095 277.284L401.615 273.08L403.993 257.475ZM315.292 261.127L342.788 265.331L340.394 280.936L312.868 276.593L315.292 261.127ZM311.687 276.471L284.206 272.267L286.539 256.647L314.034 260.851L311.687 276.471ZM344 265.454L371.419 269.643L369.025 285.247L341.545 281.043L344 265.454ZM372.707 269.842L400.203 274.046L397.809 289.651L370.329 285.447L372.707 269.842ZM371.679 268.431L344.199 264.227L346.578 248.622L374.073 252.842L371.679 268.431ZM342.972 264.042L315.492 259.838L317.87 244.234L345.335 248.423L342.972 264.042ZM314.218 259.716L286.738 255.496L289.116 239.769L316.612 243.973L314.218 259.716ZM285.495 255.235L258.015 251.031L260.393 235.427L287.889 239.631L285.495 255.235ZM282.733 273.295L280.355 288.868L252.875 284.664L255.269 269.06L282.733 273.295ZM283.961 273.479L311.441 277.683L309.047 293.287L281.567 289.083L283.961 273.479ZM312.669 277.867L340.149 282.071L337.755 297.675L310.29 293.471L312.669 277.867ZM341.376 282.255L368.856 286.475L366.463 302.064L338.983 297.859L341.376 282.255ZM370.084 286.659L397.564 290.863L395.17 306.467L367.69 302.263L370.084 286.659ZM398.791 291.047L426.271 295.251L423.878 310.855L396.398 306.651L398.791 291.047ZM398.975 289.835L401.354 274.231L428.849 278.435L426.456 294.039L398.975 289.835ZM430.061 278.619L457.557 282.823L455.163 298.427L427.683 294.223L430.061 278.619ZM458.769 283.007L486.264 287.226L483.871 302.815L456.391 298.611L458.769 283.007ZM458.968 281.795L461.347 266.191L488.857 270.456L486.494 285.999L458.968 281.795ZM457.741 281.611L430.261 277.391L432.639 261.787L460.134 266.006L457.741 281.611ZM432.792 260.575L435.186 244.971L462.666 249.175L460.411 264.779L432.792 260.575ZM431.58 260.391L404.1 256.171L406.478 240.582L433.959 244.786L431.58 260.391ZM402.873 255.987L375.377 251.783L377.771 236.179L405.251 240.383L402.873 255.987ZM374.165 251.599L346.716 247.441L349.109 231.837L376.589 236.041L374.165 251.599ZM345.457 247.195L318.023 242.991L320.402 227.387L347.882 231.606L345.457 247.195ZM316.796 242.838L289.316 238.634L291.633 222.999L319.251 227.203L316.796 242.838ZM288.088 238.45L260.593 234.245L262.986 218.641L290.467 222.891L288.088 238.45ZM259.411 234.015L231.931 229.811L234.31 214.207L261.79 218.426L259.411 234.015ZM259.227 235.243L256.834 250.847L229.354 246.643L231.732 231.039L259.227 235.243ZM228.126 246.459L200.646 242.239L203.024 226.635L230.52 230.855L228.126 246.459ZM199.418 242.055L171.954 237.851L174.332 222.247L201.827 226.451L199.418 242.055ZM199.234 243.283L196.841 258.887L169.361 254.683L171.754 239.079L199.234 243.283ZM196.657 260.161L194.263 275.765L166.783 271.561L169.177 255.956L196.657 260.161ZM197.884 260.36L225.364 264.564L222.971 280.168L195.491 275.949L197.884 260.36ZM226.592 264.748L254.041 268.922L251.648 284.526L224.121 280.291L226.592 264.748ZM251.464 285.799L249.07 301.404L221.59 297.184L223.983 281.58L251.464 285.799ZM252.691 285.984L280.171 290.188L277.824 305.746L250.328 301.542L252.691 285.984ZM281.399 290.372L308.879 294.576L306.485 310.18L279.005 305.976L281.399 290.372ZM310.045 294.699L337.663 298.903L335.269 314.507L307.713 310.349L310.045 294.699ZM338.752 299.087L366.233 303.291L363.839 318.895L336.359 314.691L338.752 299.087ZM367.46 303.475L394.94 307.695L392.547 323.284L365.066 319.079L367.46 303.475ZM396.168 307.879L423.648 312.083L421.254 327.687L393.774 323.483L396.168 307.879ZM424.875 312.267L452.417 316.486L450.023 332.091L422.543 327.887L424.875 312.267ZM425.059 311.039L427.453 295.45L454.994 299.609L452.601 315.213L425.059 311.039ZM456.161 299.839L483.641 304.043L481.247 319.647L453.767 315.443L456.161 299.839ZM484.96 304.212L512.44 308.416L510.047 324.02L482.567 319.816L484.96 304.212ZM485.144 302.999L487.523 287.395L515.018 291.599L512.578 307.28L485.144 302.999ZM487.722 286.122L490.1 270.517L517.596 274.721L515.171 290.402L487.722 286.122ZM490.284 269.244L492.632 253.762L520.112 257.966L517.749 273.525L490.284 269.244ZM489.072 269.044L461.577 264.84L463.97 249.236L491.42 253.578L489.072 269.044ZM464.154 248.024L466.548 232.542L493.997 236.7L491.619 252.305L464.154 248.024ZM462.942 247.824L435.447 243.62L437.84 228.016L465.321 232.235L462.942 247.824ZM434.235 243.436L406.709 239.355L409.102 223.751L436.582 227.955L434.235 243.436ZM405.527 239.048L378.032 234.844L380.425 219.24L407.905 223.444L405.527 239.048ZM376.819 234.644L349.293 230.563L351.687 214.959L379.167 219.163L376.819 234.644ZM348.112 230.256L320.616 226.052L322.979 210.617L350.459 214.821L348.112 230.256ZM319.374 225.96L291.878 221.741L294.272 206.152L321.752 210.356L319.374 225.96ZM290.666 221.556L263.171 217.352L265.549 201.779L293.044 206.014L290.666 221.556ZM261.958 217.168L234.463 212.964L236.857 197.36L264.337 201.564L261.958 217.168ZM233.328 212.795L205.709 208.591L208.103 192.987L235.583 197.206L233.328 212.795ZM233.128 214.023L230.75 229.627L203.27 225.423L205.648 209.819L233.128 214.023ZM202.042 225.239L174.562 221.019L176.94 205.43L204.42 209.635L202.042 225.239ZM173.335 220.835L145.855 216.631L148.233 201.027L175.728 205.231L173.335 220.835ZM173.151 222.063L170.757 237.667L143.277 233.463L145.655 217.859L173.151 222.063ZM170.573 238.941L168.179 254.545L140.699 250.341L143.093 234.736L170.573 238.941ZM167.995 255.818L165.602 271.423L138.121 267.219L140.515 251.614L167.995 255.818ZM165.417 272.696L163.039 288.285L135.544 284.081L137.937 268.477L165.417 272.696ZM166.645 272.88L194.125 277.084L191.747 292.689L164.251 288.485L166.645 272.88ZM195.352 277.269L222.833 281.473L220.439 297.077L192.959 292.873L195.352 277.269ZM220.255 298.304L217.877 313.909L190.366 309.551L192.759 293.947L220.255 298.304ZM221.482 298.489L248.963 302.693L246.584 318.297L219.089 314.093L221.482 298.489ZM250.113 302.677L277.593 306.897L275.215 322.486L247.72 318.282L250.113 302.677ZM278.821 307.081L306.301 311.285L303.907 326.935L276.412 322.731L278.821 307.081ZM307.528 311.469L335.009 315.673L332.63 331.277L305.135 327.073L307.528 311.469ZM336.236 315.873L363.747 320.123L361.369 335.727L333.873 331.508L336.236 315.873ZM364.944 320.261L392.424 324.465L390.046 340.069L362.55 335.865L364.944 320.261ZM393.651 324.649L421.131 328.853L418.753 344.457L391.258 340.253L393.651 324.649ZM422.359 329.053L449.839 333.364L447.461 348.968L419.965 344.764L422.359 329.053ZM451.066 333.441L478.547 337.645L476.168 353.311L448.673 349.107L451.066 333.441ZM451.251 332.213L453.644 316.609L481.124 320.829L478.731 336.433L451.251 332.213ZM482.352 321.089L509.832 325.294L507.438 340.898L479.958 336.694L482.352 321.089ZM511.044 325.447L538.524 329.651L536.131 345.255L508.666 341.036L511.044 325.447ZM511.228 324.235L513.622 308.631L541.102 312.835L538.662 328.439L511.228 324.235ZM513.806 307.357L516.184 291.753L543.679 295.957L541.286 311.561L513.806 307.357ZM516.384 290.479L518.716 275.059L546.334 279.186L543.956 294.791L516.384 290.479ZM518.946 273.601L521.355 258.181L548.835 262.385L546.457 277.99L518.946 273.601ZM521.524 256.724L523.932 241.303L551.413 245.508L549.034 261.112L521.524 256.724ZM520.311 256.539L492.816 252.335L495.21 236.731L522.69 240.935L520.311 256.539ZM495.394 235.504L497.787 219.915L525.267 224.119L522.874 239.723L495.394 235.504ZM494.166 235.32L466.686 231.115L469.08 215.511L496.56 219.715L494.166 235.32ZM465.459 230.931L437.979 226.727L440.464 211.322L467.944 215.526L465.459 230.931ZM436.751 226.543L409.271 222.324L411.664 206.735L439.145 210.939L436.751 226.543ZM408.043 222.139L380.625 218.135L383.018 202.531L410.498 206.735L408.043 222.139ZM379.336 217.751L351.871 213.685L354.265 198.081L381.745 202.285L379.336 217.751ZM350.628 213.348L323.148 209.144L325.557 193.739L353.006 197.958L350.628 213.348ZM321.936 208.959L294.441 204.755L296.834 189.151L324.314 193.355L321.936 208.959ZM293.228 204.571L265.733 200.352L268.126 184.763L295.622 189.136L293.228 204.571ZM264.505 200.168L237.025 195.964L239.465 180.559L266.945 184.763L264.505 200.168ZM235.813 195.779L208.318 191.575L210.711 175.971L238.191 180.175L235.813 195.779ZM207.106 191.391L179.625 187.371L182.019 171.782L209.499 175.986L207.106 191.391ZM206.906 192.603L204.528 208.208L177.032 204.004L179.426 188.399L206.906 192.603ZM175.82 203.819L148.34 199.876L150.734 184.272L178.214 188.476L175.82 203.819ZM135.283 285.155L162.748 289.359L160.369 304.963L132.874 300.759L135.283 285.155ZM163.99 289.543L191.471 293.747L189.092 309.352L161.597 305.148L163.99 289.543ZM188.832 310.579L186.453 326.183L158.973 321.979L161.351 306.375L188.832 310.579ZM190.059 310.763L217.6 314.952L215.222 330.556L187.742 326.352L190.059 310.763ZM218.767 315.167L246.247 319.371L243.868 334.975L216.45 330.756L218.767 315.167ZM247.536 319.555L275.016 323.759L272.637 339.363L245.142 335.159L247.536 319.555ZM276.289 323.943L303.769 328.163L301.391 343.752L273.865 339.502L276.289 323.943ZM304.997 328.347L332.477 332.551L329.991 348.155L302.511 343.951L304.997 328.347ZM333.704 332.735L361.185 336.939L358.806 352.543L331.311 348.339L333.704 332.735ZM362.412 337.123L389.831 341.343L387.453 356.932L359.957 352.728L362.412 337.123ZM391.12 341.527L418.6 345.731L416.222 361.335L388.726 357.131L391.12 341.527ZM419.827 345.915L447.307 350.119L444.929 365.723L417.449 361.519L419.827 345.915ZM448.535 350.319L476.015 354.523L473.591 370.188L446.095 365.969L448.535 350.319ZM477.242 354.707L504.723 358.911L502.344 374.515L474.849 370.311L477.242 354.707ZM477.427 353.479L479.82 337.875L507.3 342.095L504.907 357.684L477.427 353.479ZM508.528 342.279L536.008 346.483L533.63 362.087L506.088 357.914L508.528 342.279ZM553.607 231.484L551.597 244.372L524.117 240.168L526.51 224.564L551.213 228.338C551.938 228.452 552.589 228.845 553.028 229.433C553.466 230.02 553.658 230.757 553.561 231.484H553.607ZM156.211 167.808L180.914 171.583L178.536 187.187L150.918 182.998L152.882 170.171C152.936 169.805 153.062 169.453 153.253 169.136C153.444 168.819 153.696 168.542 153.994 168.323C154.292 168.103 154.63 167.945 154.99 167.856C155.349 167.768 155.723 167.752 156.089 167.808H156.211ZM130.864 314.799L132.828 301.971L160.308 306.191L157.93 321.78L133.089 318.021C132.351 317.904 131.689 317.499 131.249 316.895C130.809 316.291 130.626 315.537 130.741 314.799H130.864ZM528.229 378.489L503.51 374.699L505.904 359.095L533.384 363.299L531.42 376.142C531.307 376.875 530.907 377.534 530.309 377.974C529.711 378.414 528.963 378.599 528.229 378.489V378.489Z" fill="white"/>
</g>
<path opacity="0.5" d="M538.355 330.879L531.42 376.111C531.368 376.461 531.246 376.797 531.064 377.1C530.881 377.403 530.64 377.667 530.355 377.877C530.07 378.087 529.746 378.238 529.402 378.322C529.058 378.406 528.701 378.421 528.351 378.366L132.997 317.852C132.648 317.798 132.313 317.675 132.012 317.492C131.711 317.308 131.449 317.067 131.24 316.782C131.032 316.497 130.883 316.174 130.8 315.831C130.717 315.488 130.702 315.132 130.756 314.783L131.677 308.738C131.677 308.738 150.258 293.763 161.888 295.543C175.621 297.645 178.091 305.439 190.366 307.28C202.641 309.121 216.081 280.736 227.19 282.424C233.189 283.344 234.724 287.963 237.654 292.198C238.912 294.144 240.58 295.793 242.541 297.028C244.502 298.263 246.709 299.055 249.008 299.348L249.469 299.424C264.505 301.726 284.851 221.909 305.534 225.07C314.74 226.466 318.376 244.081 321.123 263.536C324.606 288.086 326.57 315.704 336.159 317.1C353.313 319.724 359.174 284.879 375.101 287.38C385.12 288.914 388.772 307.48 397.211 322.194C402.197 330.894 408.872 338.259 419.551 339.885C429.263 341.419 435.754 339.118 440.802 335.574C450.698 328.654 455.117 316.839 467.484 318.696C474.818 319.816 477.488 325.462 480.219 330.786C482.597 335.389 485.021 339.839 490.668 340.698C497.312 341.726 502.943 332.213 508.973 323.821C513.898 316.885 519.038 310.656 525.145 311.546C531.251 312.436 535.087 320 536.944 325.355C537.523 327.167 537.994 329.011 538.355 330.879V330.879Z" fill="#92E3A9"/>
<path opacity="0.5" d="M547.868 268.722L531.42 376.126C531.368 376.476 531.246 376.813 531.064 377.116C530.881 377.419 530.64 377.683 530.355 377.892C530.07 378.102 529.746 378.253 529.402 378.337C529.058 378.421 528.701 378.436 528.351 378.382L132.997 317.852C132.648 317.798 132.313 317.675 132.012 317.492C131.711 317.308 131.449 317.067 131.24 316.782C131.032 316.497 130.883 316.174 130.8 315.831C130.717 315.488 130.702 315.132 130.756 314.783L131.677 308.738C148.095 311.254 156.856 298.964 167.872 300.652C178.889 302.34 184.597 310.027 194.907 311.607C205.218 313.188 221.129 289.052 232.407 290.786C234.175 291.043 235.903 291.528 237.547 292.228C241.889 294.039 244.881 296.954 248.901 299.378C252.065 301.296 255.581 302.559 259.243 303.092C272.453 305.102 298.89 257.291 314.218 259.639C316.871 260.118 319.275 261.507 321.015 263.567C330.068 273.433 332.4 298.105 345.166 300.054C360.647 302.432 368.933 277.253 383.954 279.539C398.975 281.826 403.394 307.725 420.778 310.38C438.163 313.034 457.02 265.531 475.079 268.293C493.138 271.054 498.294 295.466 513.99 297.859C531.221 300.499 547.868 268.722 547.868 268.722Z" fill="#92E3A9"/>
<path d="M540.196 318.65L531.389 376.111C531.337 376.461 531.216 376.797 531.033 377.1C530.85 377.403 530.609 377.667 530.324 377.877C530.039 378.087 529.715 378.238 529.371 378.322C529.027 378.406 528.67 378.421 528.321 378.366L132.997 317.852C132.648 317.798 132.313 317.675 132.012 317.492C131.711 317.308 131.449 317.067 131.24 316.782C131.032 316.497 130.883 316.174 130.8 315.831C130.717 315.488 130.702 315.132 130.756 314.783L131.201 311.822C131.769 311.285 141.083 302.493 150.534 303.935C160.308 305.47 160.339 314.185 173.964 316.21C187.589 318.236 191.563 307.51 210.895 310.472C230.228 313.433 230.167 326.951 250.159 330.019C270.152 333.088 274.279 316.87 288.518 319.049C302.757 321.227 301.759 329.498 309.83 330.725C317.901 331.953 322.596 319.31 332.523 320.829C342.45 322.348 350.045 343.153 361.23 344.872C369.086 346.069 382.972 330.51 397.149 322.163C403.133 318.634 409.194 316.394 414.84 317.269C426.517 319.049 433.329 328.163 440.74 335.543C445.343 340.146 450.299 344.135 456.774 345.133C465.98 346.544 473.054 338.167 480.158 330.802C485.927 324.802 491.742 319.463 498.815 320.537C502.353 320.987 505.776 322.09 508.911 323.79C515.049 327.227 516.66 331.86 523.994 332.996C532.816 334.392 540.196 318.65 540.196 318.65Z" fill="#92E3A9"/>
<path d="M179.702 161.916L158.467 158.664C157.976 158.589 157.505 158.418 157.08 158.16C156.655 157.903 156.285 157.564 155.992 157.164C155.698 156.763 155.486 156.309 155.369 155.826C155.251 155.344 155.23 154.843 155.306 154.352C155.457 153.36 155.996 152.468 156.805 151.872C157.613 151.277 158.625 151.026 159.618 151.176L180.838 154.429C181.828 154.584 182.718 155.124 183.312 155.931C183.907 156.739 184.159 157.748 184.014 158.74V158.74C183.859 159.731 183.319 160.62 182.511 161.215C181.704 161.81 180.694 162.062 179.702 161.916Z" fill="#92E3A9"/>
<path d="M191.425 157.636H191.762L212.998 160.888C213.3 160.927 213.591 161.026 213.855 161.178C214.118 161.331 214.348 161.535 214.532 161.778C214.88 162.262 215.028 162.861 214.946 163.451C214.86 163.981 214.589 164.464 214.183 164.814C213.776 165.165 213.259 165.361 212.721 165.369H212.369L191.149 162.116C190.845 162.083 190.552 161.986 190.287 161.833C190.023 161.68 189.794 161.473 189.614 161.226C189.366 160.892 189.216 160.495 189.181 160.081C189.146 159.666 189.227 159.25 189.415 158.879C189.603 158.508 189.89 158.196 190.245 157.979C190.6 157.763 191.009 157.649 191.425 157.651V157.636ZM191.425 156.117C190.456 156.092 189.516 156.44 188.797 157.089C188.078 157.739 187.637 158.64 187.564 159.606C187.491 160.572 187.792 161.529 188.405 162.279C189.018 163.029 189.896 163.514 190.857 163.635L212.077 166.888C212.271 166.903 212.466 166.903 212.66 166.888C213.612 166.882 214.528 166.519 215.224 165.87C215.92 165.22 216.347 164.332 216.418 163.383C216.49 162.433 216.201 161.491 215.61 160.745C215.019 159.999 214.168 159.502 213.228 159.354L191.992 156.117C191.804 156.101 191.614 156.101 191.425 156.117V156.117Z" fill="#92E3A9"/>
<path d="M223.799 162.592H224.121L245.341 165.844C245.897 165.937 246.398 166.234 246.746 166.677C247.094 167.12 247.263 167.677 247.221 168.239C247.179 168.801 246.928 169.326 246.517 169.712C246.107 170.098 245.567 170.317 245.004 170.325H244.666L223.431 167.072C223.129 167.034 222.837 166.936 222.573 166.783C222.31 166.63 222.08 166.426 221.897 166.182C221.723 165.944 221.598 165.673 221.529 165.386C221.461 165.099 221.45 164.801 221.498 164.509C221.581 163.982 221.849 163.502 222.254 163.153C222.658 162.805 223.173 162.611 223.707 162.607L223.799 162.592ZM223.707 161.073C222.739 161.048 221.798 161.396 221.079 162.045C220.361 162.695 219.919 163.596 219.846 164.562C219.773 165.527 220.074 166.484 220.687 167.234C221.3 167.984 222.178 168.47 223.139 168.591L244.375 171.844C244.564 171.859 244.754 171.859 244.943 171.844C245.895 171.838 246.81 171.475 247.507 170.825C248.203 170.176 248.629 169.288 248.701 168.339C248.772 167.389 248.484 166.447 247.893 165.701C247.301 164.954 246.451 164.458 245.51 164.31L224.29 161.073C224.096 161.057 223.901 161.057 223.707 161.073V161.073Z" fill="#92E3A9"/>
<path d="M554.405 215.849L554.666 214.192L553.438 213.9C553.41 213.626 553.343 213.357 553.239 213.102L554.19 212.274L553.208 210.923L552.119 211.583C551.906 211.413 551.674 211.269 551.428 211.154L551.505 209.895L549.848 209.65L549.556 210.877C549.289 210.906 549.026 210.968 548.774 211.061L547.93 210.11L546.58 211.108L547.239 212.182C547.069 212.396 546.93 212.634 546.825 212.887L545.567 212.795L545.306 214.452L546.534 214.759C546.562 215.028 546.629 215.292 546.733 215.542L545.782 216.37L546.779 217.721L547.853 217.061C548.068 217.227 548.299 217.371 548.544 217.49L548.467 218.749L550.124 218.994L550.416 217.782C550.687 217.739 550.954 217.673 551.213 217.582L552.042 218.534L553.392 217.536L552.732 216.462C552.899 216.251 553.038 216.019 553.147 215.772L554.405 215.849ZM549.694 216.248C549.314 216.188 548.959 216.018 548.675 215.757C548.391 215.496 548.191 215.157 548.1 214.782C548.009 214.408 548.031 214.015 548.164 213.653C548.296 213.291 548.533 212.976 548.844 212.749C549.155 212.522 549.526 212.391 549.911 212.375C550.296 212.359 550.678 212.457 551.007 212.658C551.336 212.858 551.598 213.151 551.761 213.501C551.923 213.851 551.978 214.24 551.919 214.621C551.88 214.874 551.791 215.117 551.658 215.335C551.525 215.554 551.35 215.744 551.144 215.895C550.937 216.046 550.703 216.155 550.454 216.216C550.205 216.276 549.947 216.287 549.694 216.248V216.248Z" fill="#92E3A9"/>
<path opacity="0.2" d="M315.763 398.431L311.243 397.74L306.276 430.197L310.796 430.888L315.763 398.431Z" fill="#92E3A9"/>
<path d="M315.017 403.308L310.498 402.617L308.16 417.89L312.68 418.581L315.017 403.308Z" fill="#92E3A9"/>
<path opacity="0.2" d="M304.366 405.052L299.846 404.36L294.88 436.817L299.399 437.509L304.366 405.052Z" fill="#92E3A9"/>
<path d="M298.496 412.91L296.156 428.199L300.676 428.89L303.015 413.602L298.496 412.91Z" fill="#92E3A9"/>
<path opacity="0.2" d="M296.2 397.48L291.673 396.795L286.748 429.301L291.275 429.987L296.2 397.48Z" fill="#92E3A9"/>
<path d="M293.266 409.49L288.746 408.798L286.406 424.086L290.926 424.778L293.266 409.49Z" fill="#92E3A9"/>
<path opacity="0.2" d="M324.947 406.387L320.428 405.695L315.461 438.152L319.981 438.844L324.947 406.387Z" fill="#92E3A9"/>
<path d="M324.217 411.264L319.698 410.572L317.358 425.86L321.878 426.552L324.217 411.264Z" fill="#92E3A9"/>
<path opacity="0.2" d="M336.571 398.342L332.051 397.65L327.084 430.107L331.604 430.799L336.571 398.342Z" fill="#92E3A9"/>
<path d="M336.009 402.003L331.489 401.311L329.15 416.599L333.669 417.291L336.009 402.003Z" fill="#92E3A9"/>
<path opacity="0.2" d="M345.462 408.271L340.942 407.579L335.976 440.037L340.495 440.728L345.462 408.271Z" fill="#92E3A9"/>
<path d="M345.265 409.499L340.745 408.808L338.406 424.096L342.925 424.788L345.265 409.499Z" fill="#92E3A9"/>
<path opacity="0.2" d="M358.204 392.855L353.684 392.163L348.717 424.62L353.237 425.312L358.204 392.855Z" fill="#92E3A9"/>
<path d="M358.035 394.085L353.515 393.394L351.178 408.667L355.698 409.358L358.035 394.085Z" fill="#92E3A9"/>
<path opacity="0.2" d="M365.244 414.854L360.724 414.162L355.757 446.62L360.277 447.311L365.244 414.854Z" fill="#92E3A9"/>
<path d="M364.499 419.746L359.979 419.055L357.639 434.343L362.159 435.035L364.499 419.746Z" fill="#92E3A9"/>
<path opacity="0.2" d="M375.118 418.304L370.598 417.612L365.631 450.069L370.151 450.761L375.118 418.304Z" fill="#92E3A9"/>
<path d="M373.246 430.535L368.726 429.843L366.387 445.131L370.906 445.823L373.246 430.535Z" fill="#92E3A9"/>
<path opacity="0.2" d="M388.416 399.461L383.896 398.77L378.929 431.227L383.449 431.918L388.416 399.461Z" fill="#92E3A9"/>
<path d="M386.344 412.926L381.824 412.235L379.487 427.508L384.007 428.199L386.344 412.926Z" fill="#92E3A9"/>
<path opacity="0.2" d="M396.377 415.308L391.858 414.616L386.891 447.073L391.411 447.765L396.377 415.308Z" fill="#92E3A9"/>
<path d="M395.433 421.431L390.913 420.74L388.576 436.013L393.096 436.705L395.433 421.431Z" fill="#92E3A9"/>
<path opacity="0.2" d="M407.833 408.39L403.314 407.699L398.347 440.156L402.867 440.848L407.833 408.39Z" fill="#92E3A9"/>
<path d="M408.341 413.373L403.814 412.687L401.494 427.999L406.021 428.685L408.341 413.373Z" fill="#92E3A9"/>
<path opacity="0.2" d="M420.233 395.364L415.713 394.672L410.746 427.129L415.266 427.821L420.233 395.364Z" fill="#92E3A9"/>
<path d="M420.217 395.376L415.697 394.684L413.358 409.972L417.877 410.664L420.217 395.376Z" fill="#92E3A9"/>
<path opacity="0.2" d="M427.254 417.482L422.734 416.79L417.768 449.247L422.287 449.939L427.254 417.482Z" fill="#92E3A9"/>
<path d="M426.677 421.158L422.157 420.466L419.818 435.755L424.338 436.446L426.677 421.158Z" fill="#92E3A9"/>
<path opacity="0.2" d="M435.218 433.313L430.699 432.621L425.732 465.079L430.252 465.77L435.218 433.313Z" fill="#92E3A9"/>
<path d="M434.656 436.974L430.137 436.282L427.797 451.571L432.317 452.262L434.656 436.974Z" fill="#92E3A9"/>
<path opacity="0.2" d="M448.006 417.689L443.486 416.997L438.519 449.455L443.039 450.146L448.006 417.689Z" fill="#92E3A9"/>
<path d="M446.148 429.892L441.629 429.2L439.289 444.489L443.809 445.18L446.148 429.892Z" fill="#92E3A9"/>
<path opacity="0.2" d="M460.985 400.897L456.465 400.205L451.498 432.662L456.018 433.354L460.985 400.897Z" fill="#92E3A9"/>
<path d="M458.73 415.56L454.21 414.869L451.871 430.157L456.39 430.849L458.73 415.56Z" fill="#92E3A9"/>
<path opacity="0.2" d="M468.339 420.79L463.819 420.098L458.852 452.555L463.372 453.247L468.339 420.79Z" fill="#92E3A9"/>
<path d="M468.968 425.7L464.441 425.014L462.121 440.325L466.648 441.011L468.968 425.7Z" fill="#92E3A9"/>
<path opacity="0.2" d="M477.657 427.752L473.137 427.06L468.171 459.517L472.691 460.209L477.657 427.752Z" fill="#92E3A9"/>
<path d="M475.616 441.202L471.097 440.51L468.757 455.798L473.277 456.49L475.616 441.202Z" fill="#92E3A9"/>
<path opacity="0.2" d="M489.376 419.173L484.857 418.481L479.89 450.938L484.41 451.63L489.376 419.173Z" fill="#92E3A9"/>
<path d="M489.375 419.187L484.855 418.495L482.516 433.783L487.036 434.475L489.375 419.187Z" fill="#92E3A9"/>
<path opacity="0.2" d="M497.99 430.853L493.47 430.161L488.504 462.618L493.024 463.31L497.99 430.853Z" fill="#92E3A9"/>
<path d="M497.61 433.297L493.09 432.606L490.75 447.894L495.27 448.585L497.61 433.297Z" fill="#92E3A9"/>
<path opacity="0.2" d="M508.834 428.028L504.314 427.336L499.347 459.794L503.867 460.485L508.834 428.028Z" fill="#92E3A9"/>
<path d="M508.636 429.256L504.117 428.565L501.777 443.853L506.297 444.545L508.636 429.256Z" fill="#92E3A9"/>
<path opacity="0.2" d="M518.338 433.759L513.818 433.067L508.852 465.524L513.371 466.216L518.338 433.759Z" fill="#92E3A9"/>
<path d="M517.393 449.646L512.866 448.961L510.546 464.272L515.073 464.958L517.393 449.646Z" fill="#92E3A9"/>
<path d="M354.234 478.838L269.117 465.813L268.713 468.452L353.83 481.477L354.234 478.838Z" fill="#999999" stroke="#263238" stroke-linecap="round" stroke-linejoin="round"/>
<path opacity="0.2" d="M408.335 293.287C408.335 293.287 396.797 299.685 404.146 317.023C411.496 334.361 456.191 362.87 455.286 377.354C455.286 377.354 409.394 348.754 396.643 365.263C396.643 365.263 431.304 398.881 434.91 424.167C438.516 449.453 450.253 460.669 477.381 475.092C504.508 489.514 563.488 565.618 563.488 565.618L554.666 437.807L468.742 340.836L426.272 316.624L408.335 293.287Z" fill="black" fill-opacity="0.7"/>
<path d="M641.464 521.168L565.82 570.85H565.698C565.627 570.846 565.56 570.823 565.503 570.782C565.446 570.741 565.402 570.685 565.375 570.62C565.038 569.73 531.62 480.416 523.564 473.45C519.028 469.351 515.724 464.07 514.021 458.198C514.021 458.198 514.021 458.122 514.021 458.076C513.729 457.094 513.591 456.449 513.56 456.281C509.111 447.232 502.285 439.563 493.813 434.094C488.15 430.663 482.169 427.785 475.954 425.502C466.441 421.65 456.652 417.676 449.732 410.327C448.546 409.071 447.463 407.721 446.494 406.292C435.493 390.181 418.508 372.398 412.846 368.746C407.184 365.094 396.766 365.585 396.674 365.585C396.589 365.595 396.504 365.571 396.436 365.52C396.367 365.469 396.321 365.393 396.306 365.309C396.122 363.905 396.249 362.477 396.678 361.127C397.108 359.778 397.829 358.539 398.791 357.499C400.237 355.809 402.033 354.454 404.054 353.526C406.076 352.599 408.275 352.122 410.499 352.129C419.244 352.129 431.289 356.732 437.365 362.517C443.441 368.301 457.495 372.551 459.107 373.042C461.393 371.692 466.778 374.577 468.758 375.82C466.41 367.457 467.361 364.235 467.73 363.422C462.697 356.901 436.49 337.599 422.574 327.917C418.738 325.232 415.853 323.314 414.595 322.562C408.105 318.742 402.735 306.789 403.778 298.442C403.829 297.309 404.13 296.201 404.661 295.198C405.192 294.195 405.938 293.322 406.847 292.643C408.152 291.823 409.681 291.431 411.22 291.523C411.845 291.539 412.466 291.616 413.076 291.753C413.138 291.779 413.195 291.816 413.245 291.86C413.368 292.029 426.394 307.48 430.905 309.904C433.115 311.085 444.868 317.023 456.038 322.547L461.071 325.033C461.04 320.168 461.296 315.306 461.838 310.472C462.267 308.569 465.305 305.869 468.758 304.334C470.369 303.598 473.361 302.539 475.555 303.705C476.399 304.181 478.393 305.408 481.155 307.127L485.758 309.981C486.737 308.475 487.937 307.125 489.318 305.976C490.469 305.301 496.836 304.12 499.107 304.917C501.086 305.639 507.438 309.674 514.159 313.939L517.059 315.765C517.412 315.105 518.24 313.725 519.023 313.418C522.34 312.193 525.951 312 529.38 312.865C531.65 313.694 539.445 319.448 546.994 325.017C551.137 328.086 555.111 331.017 557.734 332.781C557.822 332.804 557.899 332.859 557.949 332.935C558.701 333.441 559.33 333.84 559.806 334.116C565.36 337.292 579.016 408.915 579.154 409.636C580.044 414.439 583.296 419.395 586.733 424.642C590.623 430.105 593.804 436.039 596.2 442.303C600.573 455.084 610.531 473.787 625.123 496.649C626.442 498.695 627.803 500.797 629.204 502.955C633.147 508.924 637.351 515.153 641.464 521.168Z" fill="white"/>
<path opacity="0.4" d="M472.9 383.998C469.97 386.314 448.704 384.12 446.095 391.27C444.561 395.49 445.696 401.873 449.686 410.296C448.5 409.04 447.417 407.691 446.448 406.261C435.447 390.15 418.462 372.367 412.8 368.715C407.138 365.064 396.766 365.585 396.674 365.585C396.589 365.595 396.504 365.571 396.436 365.52C396.367 365.469 396.321 365.393 396.306 365.309C396.122 363.905 396.249 362.477 396.678 361.127C397.108 359.778 397.829 358.539 398.791 357.499C400.237 355.809 402.033 354.454 404.054 353.526C406.076 352.599 408.275 352.122 410.499 352.129C419.244 352.129 431.289 356.732 437.365 362.517C443.441 368.301 457.495 372.551 459.107 373.042C461.393 371.692 466.778 374.577 468.758 375.82C466.41 367.457 467.361 364.235 467.73 363.422C462.697 356.901 436.49 337.599 422.574 327.917C418.738 325.232 415.853 323.314 414.595 322.562C408.105 318.742 402.735 306.789 403.778 298.442C403.829 297.309 404.13 296.201 404.661 295.198C405.192 294.195 405.938 293.322 406.847 292.643C408.152 291.823 409.681 291.431 411.22 291.523C410.164 291.935 409.188 292.527 408.335 293.272C404.07 296.908 414.242 316.103 419.965 321.412C425.949 326.951 452.862 340.698 462.528 348.892C467.837 353.387 474.803 360.2 474.803 360.2C470.553 367.442 475.754 381.727 472.9 383.998Z" fill="#92E3A9"/>
<path d="M571.712 266.666C571.712 266.528 571.712 266.497 571.712 266.559C571.723 266.574 571.729 266.593 571.729 266.612C571.729 266.632 571.723 266.65 571.712 266.666Z" fill="#92E3A9"/>
<path opacity="0.4" d="M625.123 496.572C613.723 485.725 596.753 468.831 593.577 461.421C588.728 450.066 585.491 439.587 579.461 431.946C573.431 424.305 561.202 342.877 557.688 342.647C554.175 342.417 562.107 374.868 562.521 376.525C562.184 375.497 557.796 361.673 553.592 345.915C549.234 329.544 544.83 328.654 544.83 328.654C538.985 329.82 538.954 333.978 535.962 333.917C532.97 333.855 522.705 326.567 522.705 326.567C512.747 328.009 475.386 303.951 475.386 303.951C466.886 305.102 464.891 312.528 472.148 319.494C479.406 326.46 490.254 334.898 490.254 334.898C483.257 338.305 457.572 323.897 457.572 323.897L456.038 322.516L461.07 325.002C461.04 320.137 461.296 315.275 461.838 310.441C462.267 308.538 465.305 305.838 468.758 304.304C470.369 303.567 473.361 302.508 475.555 303.675C476.399 304.15 478.393 305.378 481.155 307.096L485.758 309.95C486.737 308.444 487.937 307.094 489.318 305.945C490.469 305.27 496.836 304.089 499.107 304.887C501.086 305.608 507.438 309.643 514.159 313.909L517.059 315.735C517.412 315.075 518.24 313.694 519.023 313.387C522.34 312.162 525.951 311.969 529.38 312.835C531.65 313.663 539.445 319.417 546.994 324.987C551.137 328.055 555.111 330.986 557.734 332.75C557.822 332.773 557.899 332.828 557.949 332.904C558.701 333.41 559.33 333.809 559.806 334.085C565.36 337.261 579.016 408.885 579.154 409.606C580.044 414.408 583.296 419.364 586.733 424.612C590.625 430.084 593.806 436.029 596.2 442.303C600.573 455.007 610.531 473.711 625.123 496.572Z" fill="#92E3A9"/>
<path d="M565.697 570.543C565.697 570.543 531.942 480.324 523.794 473.235C518.779 468.701 515.303 462.715 513.852 456.112C509.371 446.973 502.472 439.237 493.905 433.741C479.344 424.151 457.327 421.666 446.678 406.123C436.03 390.58 418.968 372.367 412.923 368.47C406.877 364.573 396.582 365.279 396.582 365.279C395.523 359.233 402.259 352.497 410.391 352.497C418.523 352.497 430.629 356.748 437.027 362.793C443.425 368.838 459.045 373.441 459.045 373.441C461.531 371.661 469.218 376.602 469.218 376.602C466.149 366.214 468.006 363.407 468.006 363.407C461.976 355.244 420.686 325.861 414.656 322.302C408.626 318.742 402.934 307.035 403.993 298.504C404.019 297.444 404.29 296.405 404.786 295.468C405.281 294.531 405.987 293.721 406.847 293.103C407.708 292.485 408.7 292.074 409.747 291.904C410.793 291.733 411.864 291.808 412.877 292.121C412.877 292.121 426.011 307.741 430.629 310.226C435.247 312.712 471.473 330.832 476.797 332.95C478.276 333.58 479.884 333.845 481.487 333.723C483.089 333.6 484.639 333.093 486.004 332.244" stroke="#263238" stroke-linecap="round" stroke-linejoin="round"/>
<path d="M461.408 325.585C461.408 325.585 461.408 313.771 462.175 310.564C462.942 307.357 471.489 301.833 475.386 303.951C479.283 306.068 508.067 325.002 515.57 325.846" stroke="#263238" stroke-linecap="round" stroke-linejoin="round"/>
<path d="M485.865 310.349C486.885 308.792 488.114 307.382 489.517 306.16C490.576 305.531 496.882 304.365 499.015 305.132C503.28 306.667 528.413 324.005 532.663 325.079" stroke="#263238" stroke-linecap="round" stroke-linejoin="round"/>
<path d="M517.182 316.21C517.182 316.21 518.271 314.031 519.146 313.678C522.383 312.478 525.91 312.29 529.257 313.141C533.17 314.568 554.65 331.554 559.622 334.361C564.593 337.169 577.036 400.062 578.801 409.652C580.565 419.241 591.244 428.831 595.848 442.333C600.451 455.836 611.482 476.426 628.882 503.063C631.951 507.666 635.142 512.53 638.349 517.225" stroke="#263238" stroke-linecap="round" stroke-linejoin="round"/>
<path d="M483.303 350.61C483.303 350.61 484.837 343.414 489.164 340.223C493.491 337.031 499.291 342.095 503.541 342.616" stroke="#263238" stroke-linecap="round" stroke-linejoin="round"/>
<path d="M512.333 339.164C512.333 339.164 514.727 330.894 518.992 329.037C523.258 327.181 529.825 332.766 532.663 333.027" stroke="#263238" stroke-linecap="round" stroke-linejoin="round"/>
<path d="M540.304 331.692C540.304 331.692 543.496 328.623 544.83 328.623C546.165 328.623 551.75 334.469 552.963 334.868C554.175 335.267 555.617 333.073 557.688 333.042" stroke="#263238" stroke-linecap="round" stroke-linejoin="round"/>
<path d="M530.592 324.158C532.924 323.985 535.252 324.56 537.235 325.8" stroke="#263238" stroke-linecap="round" stroke-linejoin="round"/>
<path d="M468.082 363.391C468.082 363.391 465.965 357.929 467.024 355.137" stroke="#263238" stroke-linecap="round" stroke-linejoin="round"/>
<path d="M472.24 323.314C472.24 323.314 474.772 326.275 474.91 328.654C475.048 331.032 481.048 333.917 481.048 333.917" stroke="#263238" stroke-linecap="round" stroke-linejoin="round"/>
<path d="M512.855 325.125C512.855 325.125 516.338 323.882 518.194 325.125" stroke="#263238" stroke-linecap="round" stroke-linejoin="round"/>
<path d="M468.083 370.587C467.964 368.832 468.278 367.075 468.998 365.47C469.718 363.864 470.821 362.46 472.21 361.381" stroke="#263238" stroke-linecap="round" stroke-linejoin="round"/>
<path d="M469.325 376.587C469.325 376.587 465.367 379.993 465.367 382.126" stroke="#263238" stroke-linecap="round" stroke-linejoin="round"/>
<path d="M451.097 370.587C455.793 372.337 459.69 379.64 462.528 380.883" stroke="#263238" stroke-linecap="round" stroke-linejoin="round"/>
<path d="M507.976 347.327C510.814 351.408 517.182 381.082 523.595 390.472" stroke="#263238" stroke-linecap="round" stroke-linejoin="round"/>
<path d="M531.789 338.949C532.326 339.302 536.054 350.84 536.054 350.84" stroke="#263238" stroke-linecap="round" stroke-linejoin="round"/>
<path d="M579.46 412.061C580.395 417.965 582.097 423.721 584.524 429.184" stroke="#263238" stroke-linecap="round" stroke-linejoin="round"/>
<path d="M514.328 458.122C513.852 456.173 511.796 443.392 509.264 439.127" stroke="#263238" stroke-linecap="round" stroke-linejoin="round"/>
<path opacity="0.2" d="M84.3276 657.556C84.3276 657.556 134.255 590.428 171.908 578.138C209.561 565.848 211.417 549.17 209.883 518.053C208.349 486.937 209.484 455.575 199.143 451.831C188.801 448.087 211.54 407.458 200.677 391.362L129.437 503.278L84.3276 657.556Z" fill="black" fill-opacity="0.7"/>
<path d="M72.2216 676.26L71.4697 676.014L72.5438 676.613L72.2216 676.26ZM193.588 470.335C187.451 467.466 175.268 454.01 173.749 452.322C181.421 439.403 189.001 426.944 191.624 423.952C197.071 417.815 203.715 399.909 201.015 391.255C198.544 383.307 190.458 384.581 189.353 384.795H189.231C189.189 384.802 189.15 384.817 189.115 384.841C189.08 384.865 189.052 384.897 189.031 384.933C188.862 385.225 172.399 412.981 167.29 419.625C164.85 422.786 159.234 429.982 153.48 437.193L151.777 436.932C148.209 436.377 144.568 436.481 141.037 437.239L140.684 437.362C138.858 438.15 137.098 439.084 135.421 440.155L134.209 439.648C131.785 438.636 126.768 436.687 124.389 436.58C121.489 436.426 111.271 441.183 105.164 445.018C100.954 443.74 96.5665 443.144 92.168 443.254C87.4883 443.453 77.9447 447.335 70.2729 450.45C66.8667 451.831 63.9208 453.028 62.2023 453.519L60.6679 453.979C56.0649 455.345 53.5793 456.112 50.3878 462.495C47.0736 469.123 43.4986 493.841 41.7801 505.717L41.55 507.328C40.8902 511.931 40.9976 520.002 41.105 528.61C41.2738 540.577 41.4426 552.944 39.6628 557.762C37.2585 563.832 34.0818 569.567 30.2112 574.824C29.7048 575.545 29.2445 576.22 28.8149 576.865C26.4194 580.603 24.5068 584.629 23.1225 588.848C21.8337 592.254 20.2226 595.998 18.6576 599.42C15.773 605.756 13.0879 610.989 13.0879 610.989C13.0879 610.989 67.4804 670.997 72.2216 676.26C72.477 676.358 72.7384 676.44 73.0041 676.505C73.1882 676.198 83.2228 659.044 93.8558 642.12C103.062 627.514 112.621 613.075 116.718 609.761C122.335 604.942 126.421 598.584 128.471 591.472C130.68 584.368 144.781 575.607 158.421 567.137C173.504 557.777 189.108 548.096 189.63 540.087C189.921 535.944 190.872 529.085 191.977 521.122C194.969 499.549 198.682 472.683 193.588 470.335ZM167.75 504.827L161.045 511.348C160.094 505.978 153.573 498.843 152.545 497.754C153.06 495.172 153.393 492.557 153.542 489.929C153.787 486.937 154.048 483.791 154.785 483.285C155.521 482.779 158.912 477.148 164.436 467.942C164.896 474.432 170.573 481.582 171.34 482.61L167.75 504.827Z" fill="white"/>
<path opacity="0.4" d="M88.1327 484.896C86.1534 502.572 68.8307 546.423 68.8307 546.423L65.762 502.25C65.762 502.25 52.2751 562.196 48.5773 564.36C44.8795 566.523 38.3892 577.985 34.7682 587.083C32.3286 593.221 24.0278 597.394 18.7957 599.496C20.33 596.075 21.9717 592.331 23.2606 588.925C24.6448 584.706 26.5575 580.68 28.953 576.941C29.3826 576.297 29.8429 575.622 30.3493 574.901C34.2199 569.643 37.3966 563.909 39.8008 557.839C41.5807 552.99 41.3352 540.623 41.2431 528.686C41.1357 520.079 41.0283 511.947 41.6881 507.405L41.9182 505.794C43.6367 493.918 47.2117 469.2 50.5259 462.571C53.7174 456.188 56.2337 455.421 60.806 454.056L62.3404 453.595C64.0588 453.058 66.9434 451.862 70.411 450.527C78.0827 447.458 87.6264 443.53 92.3061 443.331C96.6805 443.239 101.042 443.845 105.225 445.126C111.363 441.275 121.551 436.533 124.451 436.687C126.829 436.794 131.846 438.743 134.27 439.756C124.082 445.003 106.944 457.646 106.944 457.646C87.565 461.85 88.1327 484.896 88.1327 484.896Z" fill="#92E3A9"/>
<path opacity="0.4" d="M122.472 461.421C127.488 457.948 132.687 454.747 138.045 451.831C143.017 449.499 144.612 440.201 141.114 437.577C140.983 437.48 140.83 437.416 140.669 437.393L141.022 437.27C144.553 436.512 148.194 436.408 151.762 436.963C145.333 446.614 140.301 454.01 138.966 455.605C134.547 460.976 122.472 461.421 122.472 461.421Z" fill="#92E3A9"/>
<path opacity="0.4" d="M147.834 521.981L150.182 522.994C148.755 528.686 147.834 521.981 147.834 521.981Z" fill="#92E3A9"/>
<path opacity="0.4" d="M193.588 470.335C187.451 467.466 175.268 454.01 173.749 452.322C181.421 439.403 189.001 426.944 191.624 423.952C197.071 417.815 203.715 399.909 201.015 391.255C198.544 383.307 190.458 384.581 189.354 384.795V385.133C189.354 385.133 198.099 386.222 198.084 398.865C198.069 411.508 175.36 436.564 175.36 436.564C175.36 436.564 152.008 480.37 150.473 479.71C148.939 479.05 145.517 508.985 145.517 508.985C145.517 508.985 152.023 514.524 150.473 521.981C150.391 522.349 150.315 522.687 150.243 522.994L160.247 527.305C160.247 527.305 170.282 520.263 175.376 530.62C180.47 540.976 126.399 577.985 122.149 583.462C122.149 583.462 121.551 604.099 113.664 607.137C108.555 609.101 99.5484 628.618 93.856 642.136C103.062 627.529 112.621 613.091 116.718 609.776C122.335 604.957 126.421 598.599 128.471 591.487C130.68 584.383 144.781 575.622 158.421 567.152C173.504 557.793 189.108 548.111 189.63 540.102C189.921 535.959 190.873 529.101 191.977 521.137C194.969 499.549 198.682 472.683 193.588 470.335ZM167.75 504.827L161.045 511.348C160.094 505.978 153.573 498.843 152.545 497.754C153.06 495.172 153.393 492.557 153.542 489.929C153.787 486.937 154.048 483.791 154.785 483.285C155.521 482.779 158.912 477.148 164.436 467.942C164.896 474.432 170.573 481.582 171.34 482.61L167.75 504.827Z" fill="#92E3A9"/>
<path d="M128.164 461.82C132.345 460.922 136.145 458.751 139.043 455.605C143.646 450.435 162.365 426.591 167.551 419.855C172.737 413.119 189.308 385.133 189.308 385.133C189.308 385.133 198.115 383.062 200.708 391.362C203.301 399.663 197.087 417.262 191.379 423.737C185.671 430.212 156.657 481.521 154.555 483.07C152.453 484.62 154.048 499.15 149.952 502.25" stroke="#263238" stroke-linecap="round" stroke-linejoin="round"/>
<path d="M152.177 497.892C152.177 497.892 160.293 506.392 160.815 512.085L168.057 504.996L171.693 482.549C171.693 482.549 164.528 473.925 164.743 466.837" stroke="#263238" stroke-linecap="round" stroke-linejoin="round"/>
<path d="M173.351 452.368C173.351 452.368 186.715 467.527 193.451 470.642C200.186 473.757 190.382 525.05 189.308 540.071C188.234 555.092 132.829 576.312 128.164 591.364C126.144 598.424 122.088 604.732 116.503 609.5C107.512 616.788 72.7129 676.352 72.7129 676.352" stroke="#263238" stroke-linecap="round" stroke-linejoin="round"/>
<path d="M153.68 437.577C153.68 437.577 145.778 436.119 141.114 437.577C136.449 439.035 116.717 453.043 112.114 455.605C107.511 458.168 100.714 458.674 99.1646 461.82" stroke="#263238" stroke-linecap="round" stroke-linejoin="round"/>
<path d="M135.437 440.553C135.437 440.553 127.458 437.086 124.389 436.932C121.321 436.779 108.846 442.656 103.154 446.798C98.7772 450.008 93.8615 452.409 88.6392 453.887" stroke="#263238" stroke-linecap="round" stroke-linejoin="round"/>
<path d="M105.18 445.371C100.996 444.064 96.6273 443.447 92.2452 443.545C85.4941 443.837 67.8798 452.122 62.3561 453.856C56.8325 455.59 54.2394 455.744 50.7872 462.663C47.3349 469.583 43.5297 496.68 41.98 507.39C40.4303 518.099 43.1922 549.446 40.0774 557.916C36.9627 566.385 32.1602 572.722 29.2603 577.126C23.3531 585.902 24.0128 592.469 13.2571 611.065" stroke="#263238" stroke-linecap="round" stroke-linejoin="round"/>
<path d="M92.6746 464.152C85.9388 470.12 87.1816 481.521 88.0715 484.896C88.9615 488.272 84.8341 501.774 83.4685 508.985" stroke="#263238" stroke-linecap="round" stroke-linejoin="round"/>
<path d="M135.437 469.921C123.162 470.182 119.357 478.467 118.559 483.914" stroke="#263238" stroke-linecap="round" stroke-linejoin="round"/>
<path d="M83.6063 457.646C79.9699 457.385 70.6411 463.093 68.8306 472.422" stroke="#263238" stroke-linecap="round" stroke-linejoin="round"/>
<path d="M171.693 482.549C171.693 482.549 173.504 477.378 175.314 476.856" stroke="#263238" stroke-linecap="round" stroke-linejoin="round"/>
<path d="M168.057 504.996C167.163 508.037 166.056 511.011 164.743 513.895C163.209 516.964 164.743 521.858 164.743 521.858" stroke="#263238" stroke-linecap="round" stroke-linejoin="round"/>
<path d="M160.815 512.085C160.554 517.271 154.846 522.825 153.68 521.858" stroke="#263238" stroke-linecap="round" stroke-linejoin="round"/>
<path d="M112.023 503.278C111.839 508.985 101.482 550.689 101.482 550.689" stroke="#263238" stroke-linecap="round" stroke-linejoin="round"/>
</svg>
