<svg width="16" height="16" viewBox="0 0 16 16" fill="none" xmlns="http://www.w3.org/2000/svg">
<path fill-rule="evenodd" clip-rule="evenodd" d="M8.00008 0.666656C12.0502 0.666656 15.3334 3.9499 15.3334 7.99999C15.3334 12.0501 12.0502 15.3333 8.00008 15.3333C3.94999 15.3333 0.666748 12.0501 0.666748 7.99999C0.666748 3.9499 3.94999 0.666656 8.00008 0.666656ZM13.9476 8.79759C13.2408 9.16522 12.3099 9.47264 11.2529 9.68459C11.1026 11.2193 10.7473 12.574 10.2304 13.5718C12.2031 12.7814 13.6585 10.9737 13.9476 8.79759ZM9.99097 8.53634C9.997 8.35978 10.0001 8.18089 10.0001 7.99999C10.0001 4.65599 8.93771 1.99999 8.00011 1.99999C7.06252 1.99999 6.00011 4.65599 6.00011 7.99999C6.00011 8.19131 6.00359 8.38038 6.01032 8.56683C6.6357 8.63221 7.30392 8.66668 8.00004 8.66668C8.68543 8.66668 9.35792 8.61833 9.99097 8.53634ZM11.3309 8.30275C11.3326 8.20231 11.3334 8.10137 11.3334 7.99999C11.3334 5.78155 10.9297 3.77818 10.2304 2.42818C12.2145 3.2231 13.6753 5.04712 13.9524 7.24003C13.6388 7.59216 12.6493 8.01048 11.3309 8.30275ZM6.11939 9.91823C6.71743 9.97211 7.34732 10 8.00004 10C8.64228 10 9.27506 9.9636 9.88363 9.89609C9.58292 12.2945 8.75145 14 8.00011 14C7.2511 14 6.42243 12.305 6.11939 9.91823ZM4.67045 8.36683C4.2878 8.29049 3.93117 8.20061 3.60555 8.09835C2.77867 7.83869 2.23828 7.52043 2.04387 7.27169C2.31092 5.06472 3.77614 3.22697 5.76977 2.42821C5.07045 3.77821 4.66675 5.78157 4.66675 7.99999C4.66675 8.12295 4.66799 8.24526 4.67045 8.36683ZM4.75284 9.74057C4.90619 11.2522 5.25919 12.5861 5.76977 13.5718C3.83129 12.7951 2.39238 11.0361 2.06877 8.91057C2.76442 9.27288 3.68233 9.55449 4.75284 9.74057Z" fill="currentColor"/>
</svg>
