<svg width="660" height="704" fill="none" xmlns="http://www.w3.org/2000/svg"><path opacity=".2" d="M255.239 555.323l128.455-23.952s29.06 91.693 34.922 103.553l-3.069 7.197 1.933 12.044-127.657 29.03-10.234-8.071-24.35-119.801z" fill="#000" fill-opacity=".7"/><path d="M374.362 521.544l-124.179 29.4 29.401 124.179 124.178-29.4-29.4-124.179z" fill="#92E3A9"/><path opacity=".2" d="M382.298 555.046l20.606 87.013-118.421 28.033c-14.269-35.705-25.178-80.661-25.178-80.661l122.993-34.385z" fill="#000" fill-opacity=".7"/><path d="M374.362 521.544l-124.179 29.4 29.401 124.179 124.178-29.4-29.4-124.179z" stroke="#263238" stroke-linecap="round" stroke-linejoin="round"/><path d="M407.645 637.81c-31.04 7.349-74.999 14.254-101.512 18.151-13.809 2.025-23.015 3.222-23.015 3.222-11.753-21.481-32.958-108.233-32.958-108.233l124.174-29.398c.246 1.059.461 2.118.691 3.161 14.806 67.097 32.62 113.097 32.62 113.097z" fill="#fff"/><path opacity=".4" d="M407.645 637.809c-31.04 7.349-74.999 14.254-101.512 18.151-19.947-13.241-24.719-26.222-24.473-38.604.261-14.699 64.304-.337 77.684-14.898 9.544-10.388 9.206-54.47 15.712-77.746 14.775 67.097 32.589 113.097 32.589 113.097z" fill="#92E3A9"/><path d="M407.645 637.81c-31.04 7.349-74.999 14.254-101.512 18.151-13.809 2.025-23.015 3.222-23.015 3.222-11.753-21.481-32.958-108.233-32.958-108.233l124.174-29.398c.246 1.059.461 2.118.691 3.161 14.806 67.097 32.62 113.097 32.62 113.097z" stroke="#263238" stroke-linecap="round" stroke-linejoin="round"/><path d="M271.15 569.73a21.757 21.757 0 015.968-4.864l1.841 4.726 6.429-2.332c2.148-.783 4.603-1.795 5.355-3.928 1.182 2.808 5.263 2.332 8.163 1.411a448.863 448.863 0 0161.374-15.082m-86.016 37.254c-1.335-.691-.23-3.069 1.274-2.977 1.503.092 2.47 1.749 2.593 3.253a3.178 3.178 0 002.762-2.501l2.132 1.534a2.335 2.335 0 01.058-2.681 2.327 2.327 0 012.542-.855 2.34 2.34 0 011.42 1.189c-.153-1.749.522-4.266 2.225-3.867a4.522 4.522 0 011.427.936 3.865 3.865 0 005.769-2.393c1.673 1.902 4.603 1.641 7.166 1.212l22.34-3.806c.215-1.411.92-3.222 2.332-3.068.813.123 1.35.905 2.056 1.335a4.85 4.85 0 003.422.122 195.987 195.987 0 0029.536-8.883m-81.351 41.013a19.943 19.943 0 008.792-1.213 5.128 5.128 0 011.457-6.214l2.701 1.734a143.636 143.636 0 0032.221-4.449c4.71-1.197 9.375-2.655 14.024-4.112l26.483-8.255" stroke="#263238" stroke-linecap="round" stroke-linejoin="round"/><path opacity=".2" d="M487.17 62.568l-2.47.153a4.786 4.786 0 01-5.171-3.498c-3.774-13.733-17.584-21.45-33.525-20.453-14.393.89-29.567 9.973-38.359 22.524a13.333 13.333 0 01-9.712 5.938l-12.275.767a7.856 7.856 0 01-7.994-4.848c-4.956-11.708-17.522-19.057-31.93-18.167-15.972.982-32.482 10.572-40.691 25.056a8.3 8.3 0 01-6.398 4.22l-2.47.153a2.7 2.7 0 00-2.363 2.21l-.967 6.136a1.543 1.543 0 00.17 1.232 1.535 1.535 0 001.027.702l2.977.905a5.187 5.187 0 013.682 5.478c-1.043 19.655 12.827 34.093 32.574 32.881 19.041-1.182 37.162-16.556 43.085-35.505a9.752 9.752 0 016.689-6.383 34.984 34.984 0 0112.95-.92 5.539 5.539 0 014.895 5.692c0 18.642 13.548 32.083 32.62 30.902 19.778-1.197 38.527-17.599 43.775-37.546a9.21 9.21 0 015.508-6.137l3.33-1.274a2.762 2.762 0 001.826-2.117l.982-6.138a1.538 1.538 0 00-.981-1.915 1.532 1.532 0 00-.784-.048zM334.119 118.77c-18.412 1.135-30.856-13.318-27.879-32.222 2.977-18.903 20.345-35.29 38.712-36.348 18.366-1.059 30.855 13.318 27.863 32.221-2.992 18.903-20.33 35.213-38.696 36.349zm44.174-40.338a40.05 40.05 0 00.092-3.176 1.842 1.842 0 011.626-1.75l21.972-1.35a1.106 1.106 0 011.12 1.535 58.492 58.492 0 00-.92 3.191c-9.452-2.746-18.888-.276-23.89 1.55zm56.034 34.124c-18.412 1.135-30.855-13.319-27.864-32.222 2.992-18.903 20.331-35.29 38.697-36.348 18.366-1.06 30.855 13.318 27.879 32.22-2.977 18.904-20.3 35.214-38.712 36.35z" fill="#000" fill-opacity=".7"/><path d="M471.413 66.388L330.621 85.076A24.001 24.001 0 00314.02 95.25l-20.607 29.981a2.239 2.239 0 00.218 2.786c.23.246.512.437.826.559a6.565 6.565 0 007.779-2.424l19.056-27.618a14.455 14.455 0 019.897-6.138l140.73-19.946-.506-6.06z" fill="#263238"/><path d="M281.476 78.233l141.988-2.347a23.981 23.981 0 0117.921 7.671l24.826 26.606c.229.246.399.541.497.863a2.215 2.215 0 01-1.034 2.589 6.567 6.567 0 01-8.055-1.227l-22.939-24.55a14.48 14.48 0 00-10.74-4.603L281.798 84.31l-.322-6.076z" fill="#263238"/><path d="M367.537 87.27c1.749.323 1.673 12.275-2.286 16.311-3.959 4.035-8.009-5.785-6.981-9.314 1.028-3.529 3.79-8.04 9.267-6.996zm24.672-1.534c-1.687.552-.138 12.275 4.281 15.911 4.419 3.637 7.242-6.736 5.785-10.096-1.458-3.36-4.772-7.518-10.066-5.815z" fill="#92E3A9" stroke="#263238" stroke-linecap="round" stroke-linejoin="round"/><path opacity=".5" d="M304.245 59.3c7.427-6.353 23.154-17.17 40.369-6.874 17.215 10.295 23.153 21.48 19.624 36.624-3.529 15.144-14.376 35.398-39.893 31.869-25.516-3.529-43.161-41.888-20.1-61.62zm100.393-4.895c7.426-6.352 23.138-17.185 40.353-6.89 17.215 10.296 23.168 21.481 19.624 36.626-3.544 15.143-14.361 35.397-39.893 31.868-25.531-3.529-43.161-41.95-20.084-61.604z" fill="#92E3A9"/><path d="M474.343 64.24l-2.47.153a6.307 6.307 0 01-6.015-3.39c-6.843-13.319-22.509-20.776-38.481-19.794a41.43 41.43 0 00-33.909 21.942 10.38 10.38 0 01-8.531 5.784l-12.275.752a10.342 10.342 0 01-9.206-4.68 41.43 41.43 0 00-36.364-17.584c-15.973.998-30.595 10.327-35.735 24.397a6.313 6.313 0 01-5.554 4.096l-2.471.154a2.04 2.04 0 00-1.902 2.163l.368 6a2.057 2.057 0 001.642 1.871l3.222.86a6.74 6.74 0 014.971 5.308 38.355 38.355 0 0013.491 23.608 38.354 38.354 0 0050.819-1.793 38.358 38.358 0 0011.794-24.5 7.18 7.18 0 015.385-6.137 34.829 34.829 0 0112.919-.92 7.253 7.253 0 016.138 5.523 38.354 38.354 0 0040.943 30.424 38.361 38.361 0 0034.961-37.144 6.71 6.71 0 014.235-5.877l3.068-1.258a2.053 2.053 0 001.397-2.056l-.384-6a2.01 2.01 0 00-2.056-1.902v0zm-142.817 54.822a33.356 33.356 0 1131.224-35.29 33.402 33.402 0 01-31.224 35.29zm35.904-39.218a38.627 38.627 0 00-.614-3.068 1.374 1.374 0 01.237-1.151 1.373 1.373 0 011.037-.552l21.971-1.366a1.384 1.384 0 011.468.92c.069.197.091.407.067.614a51.067 51.067 0 00-.23 3.069 39.448 39.448 0 00-23.89 1.534h-.046zm64.35 33.004a33.356 33.356 0 1131.224-35.29 33.39 33.39 0 01-31.178 35.29h-.046z" fill="#757575" stroke="#263238" stroke-linecap="round" stroke-linejoin="round"/><path opacity=".4" d="M306.976 107.263s-12.274-16.249-3.621-35.121c7.81-16.97 26.084-18.903 34.753-15.344l-18.857 33.02A114.983 114.983 0 01327 66.387s-16.663 16.878-20.024 40.875zm100.009-7.119s-12.274-16.234-3.621-35.106c7.81-16.985 26.084-18.919 34.738-15.344l-18.919 32.958c1.427-11.83 7.826-23.399 7.826-23.399s-16.679 16.863-20.024 40.891z" fill="#fff"/><path opacity=".2" d="M47.058 386.821l4.45 19.992 5.079-22.631-13.35-226.055H34.14l12.92 228.694z" fill="#000" fill-opacity=".7"/><path d="M38.926 155.38l12.582 227.39-4.603 18.704-6.659-18.075-12.612-227.405a2.856 2.856 0 012.685-3.069l5.6-.307a2.855 2.855 0 013.008 2.762z" fill="#92E3A9"/><path opacity=".2" d="M46.874 401.474l-6.659-18.075-12.582-227.405a2.858 2.858 0 011.594-2.784 2.841 2.841 0 011.091-.285h.783l12.674 229.063 3.1 19.486z" fill="#000" fill-opacity=".7"/><path d="M38.926 155.38l12.582 227.39-4.603 18.704-6.659-18.075-12.612-227.405a2.856 2.856 0 012.685-3.069l5.6-.307a2.855 2.855 0 013.008 2.762v0z" stroke="#263238" stroke-linecap="round" stroke-linejoin="round"/><path d="M31.316 156.914L43.59 380.146a1.94 1.94 0 00.641 1.337 1.944 1.944 0 001.4.489h1.35" fill="#92E3A9"/><path d="M31.316 156.914L43.59 380.146a1.94 1.94 0 00.641 1.337 1.944 1.944 0 001.4.489h1.35" stroke="#263238" stroke-linecap="round" stroke-linejoin="round"/><path opacity=".2" d="M87.181 429.199l41.596-271.778a31.882 31.882 0 0136.333-26.682l399.406 61.143a31.86 31.86 0 0120.872 12.629 31.853 31.853 0 015.825 23.689l-41.611 271.779a31.855 31.855 0 01-36.318 26.713l-399.421-61.159a31.886 31.886 0 01-26.682-36.334z" fill="#000" fill-opacity=".7"/><path d="M119.236 167.646l3.159-20.642a1.537 1.537 0 011.749-1.285l8.706 1.332-3.621 23.661-8.706-1.332a1.539 1.539 0 01-1.287-1.734zm54.078-43.475l20.642 3.158a1.536 1.536 0 011.285 1.749l-1.332 8.706-23.661-3.621 1.333-8.705a1.531 1.531 0 011.733-1.287v0zm28.133 4.297l20.642 3.158a1.536 1.536 0 011.285 1.749l-1.332 8.706-23.66-3.621 1.332-8.706a1.534 1.534 0 011.733-1.286v0z" fill="#92E3A9" stroke="#263238" stroke-linecap="round" stroke-linejoin="round"/><path d="M82.578 423.062l41.596-271.779a31.887 31.887 0 0136.334-26.682l399.405 61.144a31.86 31.86 0 0120.872 12.628 31.866 31.866 0 015.826 23.69l-41.612 271.778a31.855 31.855 0 01-36.318 26.713L109.26 459.395a31.884 31.884 0 01-26.682-36.333v0z" fill="#92E3A9" stroke="#263238" stroke-linecap="round" stroke-linejoin="round"/><path d="M510.246 517.163l-401.477-61.45a27.237 27.237 0 01-17.855-10.804 27.241 27.241 0 01-4.976-20.267l41.919-273.865a27.264 27.264 0 0131.07-22.831l401.492 61.451a27.296 27.296 0 0122.831 31.085l-41.918 273.85a27.269 27.269 0 01-20.454 22.361 27.28 27.28 0 01-10.632.47z" fill="#757575" stroke="#263238" stroke-linecap="round" stroke-linejoin="round"/><path d="M113.649 288.745a1.537 1.537 0 01-2.044 1.18 1.528 1.528 0 01-1.001-1.366 1.527 1.527 0 01.867-1.456 1.536 1.536 0 012.178 1.642z" fill="#999" stroke="#263238" stroke-linecap="round" stroke-linejoin="round"/><path d="M112.897 303.03a2.991 2.991 0 01-5.907-.905 2.99 2.99 0 013.383-2.354 2.993 2.993 0 012.524 3.259zm5.263-34.385a2.991 2.991 0 01-5.297 1.229 2.999 2.999 0 01-.25-3.283c.197-.355.464-.666.784-.915a3.003 3.003 0 012.285-.591 2.994 2.994 0 012.478 2.356c.081.397.081.807 0 1.204zm-7.58 44.036a2.179 2.179 0 11-4.306-.664 2.179 2.179 0 014.306.664zm462.59-96.909l-42.854 280.049a13.474 13.474 0 01-15.344 11.277l-336.344-51.477-7.288-1.044-27.419-4.204-13.272-2.025-19.179-2.977-4.189-.644a13.473 13.473 0 01-11.277-15.344l42.869-280.14a13.433 13.433 0 015.335-8.815 13.448 13.448 0 0110.009-2.447l125.555 19.21 18.996 2.915 18.151 2.777 23.322 3.56 8.439 1.289 213.274 32.635a13.478 13.478 0 018.799 5.379 13.462 13.462 0 012.417 10.026z" fill="#263238"/><path opacity=".1" d="M257.877 453.043l-142.694-21.834a3.543 3.543 0 01-2.961-4.035l14.162-92.567a3.56 3.56 0 014.05-2.961l142.694 21.833a3.536 3.536 0 012.904 2.655c.11.452.13.921.058 1.381l-14.162 92.567a3.556 3.556 0 01-1.411 2.321 3.552 3.552 0 01-2.64.64zm-127.581-120.17a2.306 2.306 0 00-2.319 1.087 2.305 2.305 0 00-.304.846l-14.162 92.552a2.308 2.308 0 00.422 1.713 2.3 2.3 0 001.511.911l142.617 21.834a2.308 2.308 0 002.319-1.087c.156-.26.26-.547.305-.847l14.177-92.551a2.33 2.33 0 00-1.933-2.639l-142.633-21.819z" fill="#fff"/><path opacity=".4" d="M173.334 388.892l31.946 18.121a37.718 37.718 0 00-2.363-39.893l-29.583 21.772z" fill="#92E3A9"/><path opacity=".6" d="M173.641 387.066l28.539-20.974a37.658 37.658 0 00-14.776-11.677l-5.631 13.349-8.132 19.302z" fill="#92E3A9"/><path d="M178.506 351.776l-4.941 32.222 12.704-30.12a38.009 38.009 0 00-7.763-2.102z" fill="#92E3A9"/><path opacity=".1" d="M171.647 388.509l5.631-36.825a37.666 37.666 0 00-40.338 50.634l34.707-13.809z" fill="#fff"/><path opacity=".2" d="M166.492 426.192a37.698 37.698 0 0038.174-18.121l-32.513-18.412-34.768 13.733a37.672 37.672 0 0029.107 22.8z" fill="#92E3A9"/><path d="M231.426 366.731l-4.231-.647a.966.966 0 00-1.102.809l-.648 4.232a.967.967 0 00.81 1.101l4.231.648a.967.967 0 001.102-.81l.647-4.231a.966.966 0 00-.809-1.102zm22.999 5.836l-18.489-2.839a.713.713 0 01-.471-.281.705.705 0 01-.128-.532.698.698 0 01.534-.588.714.714 0 01.28-.011l18.412 2.839a.702.702 0 01.47.281.698.698 0 01-.131.966.74.74 0 01-.477.165zm-6.122 2.224l-12.843-1.963a.72.72 0 01-.47-.281.706.706 0 01-.128-.533.72.72 0 01.813-.598l12.843 1.964a.708.708 0 01.598.813.713.713 0 01-.281.47.698.698 0 01-.532.128z" fill="#92E3A9"/><path opacity=".6" d="M229.325 380.478l-4.232-.647a.965.965 0 00-1.101.809l-.648 4.232a.968.968 0 00.81 1.102l4.231.647a.967.967 0 001.102-.809l.647-4.232a.966.966 0 00-.809-1.102z" fill="#92E3A9"/><path d="M252.323 386.299l-18.504-2.823a.737.737 0 01-.599-.813.721.721 0 01.813-.599l18.505 2.839a.715.715 0 01.462.28.705.705 0 01.034.784.697.697 0 01-.711.332zm-6.122 2.209l-12.873-1.963a.725.725 0 01-.505-.799.72.72 0 01.719-.613l12.843 1.964a.702.702 0 01.47.281.69.69 0 01.128.532.7.7 0 01-.782.598z" fill="#92E3A9"/><path opacity=".4" d="M228.183 394.513l-4.238-.642a.968.968 0 00-1.102.812l-.643 4.238a.968.968 0 00.812 1.102l4.238.642a.967.967 0 001.102-.812l.643-4.238a.969.969 0 00-.812-1.102z" fill="#92E3A9"/><path d="M250.206 400.047l-18.413-2.823a.726.726 0 01-.505-.799.726.726 0 01.72-.613l18.412 2.823a.713.713 0 01.589.534.729.729 0 01.01.279.707.707 0 01-.813.599zm-6.138 2.209l-12.842-1.964a.719.719 0 01-.26-1.239.717.717 0 01.474-.172l12.843 1.964a.721.721 0 01-.215 1.411z" fill="#92E3A9"/><path opacity=".2" d="M225.122 407.973l-4.231-.648a.968.968 0 00-1.102.81l-.647 4.231a.966.966 0 00.809 1.102l4.231.648a.968.968 0 001.102-.81l.648-4.231a.968.968 0 00-.81-1.102z" fill="#92E3A9"/><path d="M248.103 413.795l-18.412-2.824a.72.72 0 01-.506-1.076.715.715 0 01.442-.325.708.708 0 01.279-.01l18.489 2.823a.708.708 0 01.598.813.711.711 0 01-.307.504.705.705 0 01-.583.095zm-6.106 2.209l-12.843-1.964a.702.702 0 01-.47-.281.698.698 0 01-.128-.532.695.695 0 01.28-.471.718.718 0 01.533-.128l12.842 1.964a.725.725 0 01.599.814.708.708 0 01-.813.598z" fill="#92E3A9"/><path opacity=".1" d="M223.021 421.735l-4.231-.647a.967.967 0 00-1.102.809l-.648 4.232a.967.967 0 00.81 1.102l4.231.647a.966.966 0 001.102-.809l.647-4.232a.967.967 0 00-.809-1.102z" fill="#fff"/><path d="M246.001 427.542l-18.412-2.823a.72.72 0 01-.318-1.284.718.718 0 01.533-.128l18.489 2.824a.706.706 0 01.598.813.711.711 0 01-.307.504.705.705 0 01-.583.094zm-6.107 2.21l-12.857-1.964a.707.707 0 01-.583-.813.697.697 0 01.813-.599l12.842 1.964a.722.722 0 11-.215 1.412z" fill="#92E3A9"/><path opacity=".1" d="M526.633 392.252l-231.931-35.489a3.56 3.56 0 00-4.051 2.961l-.982 6.383-.184 1.228-1.32 8.607-.184 1.228-1.319 8.592-.185 1.212-1.319 8.608-.184 1.212-1.32 8.608-.184 1.227-1.319 8.592-.185 1.228-1.319 8.592-.184 1.228-1.32 8.592-.184 1.228-1.319 8.592-.185 1.227-.966 6.383a3.545 3.545 0 002.961 4.051l231.886 35.489a3.541 3.541 0 004.02-2.976l.982-6.383.184-1.228 1.319-8.592.185-1.227 1.319-8.608.184-1.212 1.32-8.593.184-1.227 1.319-8.592.184-1.228 1.32-8.608.184-1.212 1.32-8.607.184-1.213 1.319-8.592.184-1.227 1.32-8.608.184-1.227.982-6.383a3.546 3.546 0 00-2.9-4.036zm-12.428 96.419a2.32 2.32 0 01-.914 1.506 2.324 2.324 0 01-1.71.427l-231.87-35.49a2.332 2.332 0 01-1.949-2.639l.982-6.383 236.428 36.196-.967 6.383zm1.166-7.672l-236.443-36.18 1.32-8.608 236.427 36.196-1.304 8.592zm1.534-9.82l-236.473-36.118 1.32-8.608 236.427 36.18-1.274 8.546zm1.535-9.82l-236.443-36.195 1.32-8.592 236.427 36.18-1.304 8.607zm1.534-9.82l-236.442-36.195 1.319-8.592 236.427 36.195-1.304 8.592zm1.534-9.819l-236.442-36.196 1.319-8.607 236.428 36.195-1.305 8.608zm1.535-9.836L286.6 395.705l1.32-8.593 236.427 36.18-1.304 8.592zm1.534-9.819L287.95 385.946l1.32-8.592 236.427 36.18-1.12 8.531zm1.535-9.805l-236.658-36.134 1.32-8.607 236.427 36.195-1.089 8.546zm-234.924-46.03l.982-6.368a2.29 2.29 0 01.911-1.511 2.307 2.307 0 011.713-.422l231.594 35.551a2.299 2.299 0 011.918 2.624l-.982 6.382-236.136-36.256zm260.209-139.165l-395.124-60.484a4.029 4.029 0 00-3.006.739 4.043 4.043 0 00-1.597 2.652l-22.141 144.642a4.05 4.05 0 003.376 4.603l395.14 60.484a4.052 4.052 0 004.603-3.375l22.14-144.658a4.029 4.029 0 00-.739-3.006 4.021 4.021 0 00-2.652-1.597zm-322.212 20.79l27.434 4.189-2.394 15.589-27.48-4.204 2.44-15.574zm-3.606 15.344l-27.541-4.128 2.393-15.604 27.48 4.204-2.332 15.528zm32.298-10.94l27.496 4.204-2.394 15.604-27.48-4.204 2.378-15.604zm142.51 20.56l-27.48-4.204 2.378-15.604 27.496 4.204-2.394 15.604zm3.606-15.344l27.495 4.205-2.393 15.604-27.48-4.204 2.378-15.605zm-88.701 3.652l27.496 4.204-2.394 15.605-27.526-4.343 2.424-15.466zm-3.605 15.344l-27.481-4.204 2.333-15.62 27.495 4.204-2.347 15.62zM344 265.454l27.419 4.189-2.394 15.604-27.48-4.204L344 265.454zm28.707 4.388l27.496 4.204-2.394 15.605-27.48-4.204 2.378-15.605zm-1.028-1.411l-27.48-4.204 2.379-15.605 27.495 4.22-2.394 15.589zm-28.707-4.389l-27.48-4.204 2.378-15.604 27.465 4.189-2.363 15.619zm-28.754-4.326l-27.48-4.22 2.378-15.727 27.496 4.204-2.394 15.743zm-28.723-4.481l-27.48-4.204 2.378-15.604 27.496 4.204-2.394 15.604zm-2.762 18.06l-2.378 15.573-27.48-4.204 2.394-15.604 27.464 4.235zm1.228.184l27.48 4.204-2.394 15.604-27.48-4.204 2.394-15.604zm28.708 4.388l27.48 4.204-2.394 15.604-27.465-4.204 2.379-15.604zm28.707 4.388l27.48 4.22-2.393 15.589-27.48-4.205 2.393-15.604zm28.708 4.404l27.48 4.204-2.394 15.604-27.48-4.204 2.394-15.604zm28.707 4.388l27.48 4.204-2.393 15.604-27.48-4.204 2.393-15.604zm.184-1.212l2.379-15.604 27.495 4.204-2.393 15.604-27.481-4.204zm31.086-11.216l27.496 4.204-2.394 15.604-27.48-4.204 2.378-15.604zm28.708 4.388l27.495 4.219-2.393 15.589-27.48-4.204 2.378-15.604zm.199-1.212l2.379-15.604 27.51 4.265-2.363 15.543-27.526-4.204zm-1.227-.184l-27.48-4.22 2.378-15.604 27.495 4.219-2.393 15.605zm-24.949-21.036l2.394-15.604 27.48 4.204-2.255 15.604-27.619-4.204zm-1.212-.184l-27.48-4.22 2.378-15.589 27.481 4.204-2.379 15.605zm-28.707-4.404l-27.496-4.204 2.394-15.604 27.48 4.204-2.378 15.604zm-28.708-4.388l-27.449-4.158 2.393-15.604 27.48 4.204-2.424 15.558zm-28.708-4.404l-27.434-4.204 2.379-15.604 27.48 4.219-2.425 15.589zm-28.661-4.357l-27.48-4.204 2.317-15.635 27.618 4.204-2.455 15.635zm-28.708-4.388l-27.495-4.205 2.393-15.604 27.481 4.25-2.379 15.559zm-28.677-4.435l-27.48-4.204 2.379-15.604 27.48 4.219-2.379 15.589zm-.184 1.228l-2.393 15.604-27.48-4.204 2.378-15.604 27.495 4.204zm-31.101 11.216l-27.48-4.22 2.378-15.604 27.496 4.22-2.394 15.604zm-28.708-4.404l-27.464-4.204 2.378-15.604 27.495 4.204-2.409 15.604zm-.184 1.228l-2.393 15.604-27.48-4.204 2.393-15.604 27.48 4.204zm-2.577 16.878l-2.394 15.604-27.48-4.204 2.394-15.605 27.48 4.205zm1.227.199l27.48 4.204-2.393 15.604-27.48-4.219 2.393-15.589zm28.708 4.388l27.449 4.174-2.393 15.604-27.527-4.235 2.471-15.543zm24.872 21.051l-2.394 15.605-27.48-4.22 2.393-15.604 27.481 4.219zm1.227.185l27.48 4.204-2.347 15.558-27.496-4.204 2.363-15.558zm28.708 4.388l27.48 4.204-2.394 15.604-27.48-4.204 2.394-15.604zm28.646 4.327l27.618 4.204-2.394 15.604-27.556-4.158 2.332-15.65zm28.707 4.388l27.481 4.204-2.394 15.604-27.48-4.204 2.393-15.604zm28.708 4.388l27.48 4.22-2.393 15.589-27.481-4.205 2.394-15.604zm28.708 4.404l27.48 4.204-2.394 15.604-27.48-4.204 2.394-15.604zm28.707 4.388l27.542 4.219-2.394 15.605-27.48-4.204 2.332-15.62zm.184-1.228l2.394-15.589 27.541 4.159-2.393 15.604-27.542-4.174zm31.102-11.2l27.48 4.204-2.394 15.604-27.48-4.204 2.394-15.604zm28.799 4.373l27.48 4.204-2.393 15.604-27.48-4.204 2.393-15.604zm.184-1.213l2.379-15.604 27.495 4.204-2.44 15.681-27.434-4.281zm2.578-16.877l2.378-15.605 27.496 4.204-2.425 15.681-27.449-4.28zm2.562-16.878l2.348-15.482 27.48 4.204-2.363 15.559-27.465-4.281zm-1.212-.2l-27.495-4.204 2.393-15.604 27.45 4.342-2.348 15.466zm-24.918-21.02l2.394-15.482 27.449 4.158-2.378 15.605-27.465-4.281zm-1.212-.2l-27.495-4.204 2.393-15.604 27.481 4.219-2.379 15.589zm-28.707-4.388l-27.526-4.081 2.393-15.604 27.48 4.204-2.347 15.481zm-28.708-4.388l-27.495-4.204 2.393-15.604 27.48 4.204-2.378 15.604zm-28.708-4.404l-27.526-4.081 2.394-15.604 27.48 4.204-2.348 15.481zm-28.707-4.388l-27.496-4.204 2.363-15.435 27.48 4.204-2.347 15.435zm-28.738-4.296l-27.496-4.219 2.394-15.589 27.48 4.204-2.378 15.604zm-28.708-4.404l-27.495-4.204 2.378-15.573 27.495 4.235-2.378 15.542zm-28.708-4.388l-27.495-4.204 2.394-15.604 27.48 4.204-2.379 15.604zm-28.63-4.373l-27.619-4.204 2.394-15.604 27.48 4.219-2.255 15.589zm-.2 1.228l-2.378 15.604-27.48-4.204 2.378-15.604 27.48 4.204zm-31.086 11.216l-27.48-4.22 2.378-15.589 27.48 4.205-2.378 15.604zm-28.707-4.404l-27.48-4.204 2.378-15.604 27.495 4.204-2.393 15.604zm-.184 1.228l-2.394 15.604-27.48-4.204 2.378-15.604 27.496 4.204zm-2.578 16.878l-2.394 15.604-27.48-4.204 2.394-15.605 27.48 4.205zm-2.578 16.877l-2.393 15.605-27.481-4.204 2.394-15.605 27.48 4.204zm-2.578 16.878l-2.378 15.589-27.495-4.204 2.393-15.604 27.48 4.219zm1.228.184l27.48 4.204-2.378 15.605-27.496-4.204 2.394-15.605zm28.707 4.389l27.481 4.204-2.394 15.604-27.48-4.204 2.393-15.604zm24.903 21.035l-2.378 15.605-27.511-4.358 2.393-15.604 27.496 4.357zm1.227.185l27.481 4.204-2.379 15.604-27.495-4.204 2.393-15.604zm28.631 4.188l27.48 4.22-2.378 15.589-27.495-4.204 2.393-15.605zm28.708 4.404l27.48 4.204-2.394 15.65-27.495-4.204 2.409-15.65zm28.707 4.388l27.481 4.204-2.379 15.604-27.495-4.204 2.393-15.604zm28.708 4.404l27.511 4.25-2.378 15.604-27.496-4.219 2.363-15.635zm28.708 4.388l27.48 4.204-2.378 15.604-27.496-4.204 2.394-15.604zm28.707 4.388l27.48 4.204-2.378 15.604-27.495-4.204 2.393-15.604zm28.708 4.404l27.48 4.311-2.378 15.604-27.496-4.204 2.394-15.711zm28.707 4.388l27.481 4.204-2.379 15.666-27.495-4.204 2.393-15.666zm.185-1.228l2.393-15.604 27.48 4.22-2.393 15.604-27.48-4.22zm31.101-11.124l27.48 4.205-2.394 15.604-27.48-4.204 2.394-15.605zm28.692 4.358l27.48 4.204-2.393 15.604-27.465-4.219 2.378-15.589zm.184-1.212l2.394-15.604 27.48 4.204-2.44 15.604-27.434-4.204zm2.578-16.878l2.378-15.604 27.495 4.204-2.393 15.604-27.48-4.204zm2.578-16.878l2.332-15.42 27.618 4.127-2.378 15.605-27.572-4.312zm2.562-16.878l2.409-15.42 27.48 4.204-2.378 15.605-27.511-4.389zm2.578-16.877l2.408-15.421 27.481 4.205-2.379 15.604-27.51-4.388zm-1.213-.185l-27.495-4.204 2.394-15.604 27.48 4.204-2.379 15.604zm-24.917-21.035l2.393-15.589 27.48 4.204-2.393 15.604-27.48-4.219zm-1.228-.184l-27.48-4.205 2.394-15.604 27.48 4.204-2.394 15.605zm-28.707-4.389l-27.48-4.204 2.485-15.405 27.48 4.204-2.485 15.405zm-28.708-4.388l-27.48-4.219 2.393-15.589 27.481 4.204-2.394 15.604zm-28.708-4.404l-27.418-4.004 2.393-15.604 27.48 4.204-2.455 15.404zm-28.707-4.388l-27.465-4.066 2.394-15.604 27.48 4.204-2.409 15.466zm-28.708-4.403l-27.48-4.204 2.409-15.405 27.449 4.219-2.378 15.39zm-28.692-4.389l-27.495-4.204 2.393-15.604 27.48 4.204-2.378 15.604zm-28.708-4.388l-27.495-4.219 2.393-15.589 27.496 4.373-2.394 15.435zm-28.723-4.403l-27.48-4.204 2.44-15.405 27.48 4.204-2.44 15.405zm-28.692-4.389l-27.495-4.204 2.393-15.604 27.48 4.204-2.378 15.604zm-28.707-4.388l-27.481-4.02 2.394-15.589 27.48 4.204-2.393 15.405zm-.2 1.212l-2.378 15.605-27.496-4.204 2.394-15.605 27.48 4.204zm-31.086 11.216l-27.48-3.943 2.394-15.604 27.48 4.204-2.394 15.343zm-40.537 81.336l27.465 4.204-2.379 15.604-27.495-4.204 2.409-15.604zm28.707 4.388l27.481 4.204-2.379 15.605-27.495-4.204 2.393-15.605zm24.842 21.036l-2.379 15.604-27.48-4.204 2.378-15.604 27.481 4.204zm1.227.184l27.541 4.189-2.378 15.604-27.48-4.204 2.317-15.589zm28.708 4.404l27.48 4.204-2.379 15.604-27.418-4.219 2.317-15.589zm28.769 4.388l27.48 4.204-2.379 15.604-27.495-4.204 2.394-15.604zm28.753 4.388l27.48 4.22-2.378 15.589-27.526-4.25 2.424-15.559zm28.708 4.404l27.48 4.204-2.486 15.604-27.48-4.204 2.486-15.604zm28.707 4.388l27.481 4.204-2.379 15.604-27.495-4.204 2.393-15.604zm28.708 4.388l27.419 4.22-2.378 15.589-27.496-4.204 2.455-15.605zm28.708 4.404l27.48 4.204-2.378 15.604-27.496-4.204 2.394-15.604zm28.707 4.388l27.48 4.204-2.378 15.604-27.48-4.204 2.378-15.604zm28.708 4.404l27.48 4.204-2.424 15.665-27.496-4.219 2.44-15.65zm28.707 4.388l27.481 4.204-2.379 15.604-27.495-4.204 2.393-15.604zm.185-1.228l2.393-15.604 27.48 4.22-2.393 15.589-27.48-4.205zm31.101-11.2l27.48 4.204-2.378 15.604-27.542-4.173 2.44-15.635zm45.079-110.795l-2.01 12.888-27.48-4.204 2.393-15.604 24.703 3.774a2.81 2.81 0 012.348 3.146h.046zm-397.396-63.676l24.703 3.775-2.378 15.604-27.618-4.189 1.964-12.827a2.797 2.797 0 011.112-1.848 2.81 2.81 0 012.095-.515h.122zm-25.347 146.991l1.964-12.828 27.48 4.22-2.378 15.589-24.841-3.759a2.824 2.824 0 01-2.348-3.222h.123zm397.365 63.69l-24.719-3.79 2.394-15.604 27.48 4.204-1.964 12.843a2.807 2.807 0 01-3.191 2.347z" fill="#fff"/><path opacity=".5" d="M538.355 330.879l-6.935 45.232a2.69 2.69 0 01-2.018 2.211 2.677 2.677 0 01-1.051.044l-395.354-60.514a2.69 2.69 0 01-1.757-1.07 2.682 2.682 0 01-.484-1.999l.921-6.045s18.581-14.975 30.211-13.195c13.733 2.102 16.203 9.896 28.478 11.737 12.275 1.841 25.715-26.544 36.824-24.856 5.999.92 7.534 5.539 10.464 9.774a15.927 15.927 0 0011.354 7.15l.461.076c15.036 2.302 35.382-77.515 56.065-74.354 9.206 1.396 12.842 19.011 15.589 38.466 3.483 24.55 5.447 52.168 15.036 53.564 17.154 2.624 23.015-32.221 38.942-29.72 10.019 1.534 13.671 20.1 22.11 34.814 4.986 8.7 11.661 16.065 22.34 17.691 9.712 1.534 16.203-.767 21.251-4.311 9.896-6.92 14.315-18.735 26.682-16.878 7.334 1.12 10.004 6.766 12.735 12.09 2.378 4.603 4.802 9.053 10.449 9.912 6.644 1.028 12.275-8.485 18.305-16.877 4.925-6.936 10.065-13.165 16.172-12.275 6.106.89 9.942 8.454 11.799 13.809a48.182 48.182 0 011.411 5.524z" fill="#92E3A9"/><path opacity=".5" d="M547.868 268.722L531.42 376.126a2.695 2.695 0 01-1.065 1.766 2.676 2.676 0 01-2.004.49l-395.354-60.53a2.69 2.69 0 01-1.757-1.07 2.682 2.682 0 01-.484-1.999l.921-6.045c16.418 2.516 25.179-9.774 36.195-8.086 11.017 1.688 16.725 9.375 27.035 10.955 10.311 1.581 26.222-22.555 37.5-20.821 1.768.257 3.496.742 5.14 1.442 4.342 1.811 7.334 4.726 11.354 7.15a27.623 27.623 0 0010.342 3.714c13.21 2.01 39.647-45.801 54.975-43.453a11.594 11.594 0 016.797 3.928c9.053 9.866 11.385 34.538 24.151 36.487 15.481 2.378 23.767-22.801 38.788-20.515 15.021 2.287 19.44 28.186 36.824 30.841 17.385 2.654 36.242-44.849 54.301-42.087 18.059 2.761 23.215 27.173 38.911 29.566 17.231 2.64 33.878-29.137 33.878-29.137z" fill="#92E3A9"/><path d="M540.196 318.65l-8.807 57.461a2.672 2.672 0 01-1.065 1.766 2.676 2.676 0 01-2.003.489l-395.324-60.514a2.69 2.69 0 01-1.757-1.07 2.682 2.682 0 01-.484-1.999l.445-2.961c.568-.537 9.882-9.329 19.333-7.887 9.774 1.535 9.805 10.25 23.43 12.275 13.625 2.026 17.599-8.7 36.931-5.738 19.333 2.961 19.272 16.479 39.264 19.547 19.993 3.069 24.12-13.149 38.359-10.97 14.239 2.178 13.241 10.449 21.312 11.676 8.071 1.228 12.766-11.415 22.693-9.896 9.927 1.519 17.522 22.324 28.707 24.043 7.856 1.197 21.742-14.362 35.919-22.709 5.984-3.529 12.045-5.769 17.691-4.894 11.677 1.78 18.489 10.894 25.9 18.274 4.603 4.603 9.559 8.592 16.034 9.59 9.206 1.411 16.28-6.966 23.384-14.331 5.769-6 11.584-11.339 18.657-10.265a28.802 28.802 0 0110.096 3.253c6.138 3.437 7.749 8.07 15.083 9.206 8.822 1.396 16.202-14.346 16.202-14.346zM179.702 161.916l-21.235-3.252a3.768 3.768 0 01-2.475-1.5 3.772 3.772 0 01-.686-2.812 3.789 3.789 0 014.312-3.176l21.22 3.253a3.803 3.803 0 013.176 4.311 3.803 3.803 0 01-4.312 3.176zm11.723-4.28h.337l21.236 3.252c.302.039.593.138.857.29a2.3 2.3 0 01.677.6c.348.484.496 1.083.414 1.673a2.284 2.284 0 01-2.225 1.918h-.352l-21.22-3.253a2.198 2.198 0 01-1.535-.89 2.238 2.238 0 01.631-3.247c.355-.216.764-.33 1.18-.328v-.015zm0-1.519a3.775 3.775 0 00-.568 7.518l21.22 3.253c.194.015.389.015.583 0a3.792 3.792 0 00.568-7.534l-21.236-3.237a3.355 3.355 0 00-.567 0zm32.374 6.475h.322l21.22 3.252a2.26 2.26 0 011.88 2.395 2.255 2.255 0 01-2.217 2.086h-.338l-21.235-3.253a2.279 2.279 0 01-1.534-.89 2.234 2.234 0 01-.399-1.673 2.253 2.253 0 012.209-1.902l.092-.015zm-.092-1.519a3.777 3.777 0 00-3.861 3.489 3.773 3.773 0 003.293 4.029l21.236 3.253c.189.015.379.015.568 0a3.793 3.793 0 003.758-3.505 3.793 3.793 0 00-3.191-4.029l-21.22-3.237a3.547 3.547 0 00-.583 0zm330.698 54.776l.261-1.657-1.228-.292a2.893 2.893 0 00-.199-.798l.951-.828-.982-1.351-1.089.66a3.45 3.45 0 00-.691-.429l.077-1.259-1.657-.245-.292 1.227c-.267.029-.53.091-.782.184l-.844-.951-1.35.998.659 1.074c-.17.214-.309.452-.414.705l-1.258-.092-.261 1.657 1.228.307c.028.269.095.533.199.783l-.951.828.997 1.351 1.074-.66c.215.166.446.31.691.429l-.077 1.259 1.657.245.292-1.212c.271-.043.538-.109.797-.2l.829.952 1.35-.998-.66-1.074c.167-.211.306-.443.415-.69l1.258.077zm-4.711.399a1.956 1.956 0 01-1.594-1.466 1.945 1.945 0 011.811-2.407 1.948 1.948 0 11-.217 3.873z" fill="#92E3A9"/><path opacity=".2" d="M315.763 398.431l-4.52-.691-4.967 32.457 4.52.691 4.967-32.457z" fill="#92E3A9"/><path d="M315.017 403.308l-4.519-.691-2.338 15.273 4.52.691 2.337-15.273z" fill="#92E3A9"/><path opacity=".2" d="M304.366 405.052l-4.52-.692-4.966 32.457 4.519.692 4.967-32.457z" fill="#92E3A9"/><path d="M298.496 412.91l-2.34 15.289 4.52.691 2.339-15.288-4.519-.692z" fill="#92E3A9"/><path opacity=".2" d="M296.2 397.48l-4.527-.685-4.925 32.506 4.527.686 4.925-32.507z" fill="#92E3A9"/><path d="M293.266 409.49l-4.52-.692-2.34 15.288 4.52.692 2.34-15.288z" fill="#92E3A9"/><path opacity=".2" d="M324.947 406.387l-4.519-.692-4.967 32.457 4.52.692 4.966-32.457z" fill="#92E3A9"/><path d="M324.217 411.264l-4.519-.692-2.34 15.288 4.52.692 2.339-15.288z" fill="#92E3A9"/><path opacity=".2" d="M336.571 398.342l-4.52-.692-4.967 32.457 4.52.692 4.967-32.457z" fill="#92E3A9"/><path d="M336.009 402.003l-4.52-.692-2.339 15.288 4.519.692 2.34-15.288z" fill="#92E3A9"/><path opacity=".2" d="M345.462 408.271l-4.52-.692-4.966 32.458 4.519.691 4.967-32.457z" fill="#92E3A9"/><path d="M345.265 409.499l-4.52-.691-2.339 15.288 4.519.692 2.34-15.289z" fill="#92E3A9"/><path opacity=".2" d="M358.204 392.855l-4.52-.692-4.967 32.457 4.52.692 4.967-32.457z" fill="#92E3A9"/><path d="M358.035 394.085l-4.52-.691-2.337 15.273 4.52.691 2.337-15.273z" fill="#92E3A9"/><path opacity=".2" d="M365.244 414.854l-4.52-.692-4.967 32.458 4.52.691 4.967-32.457z" fill="#92E3A9"/><path d="M364.499 419.746l-4.52-.691-2.34 15.288 4.52.692 2.34-15.289z" fill="#92E3A9"/><path opacity=".2" d="M375.118 418.304l-4.52-.692-4.967 32.457 4.52.692 4.967-32.457z" fill="#92E3A9"/><path d="M373.246 430.535l-4.52-.692-2.339 15.288 4.519.692 2.34-15.288z" fill="#92E3A9"/><path opacity=".2" d="M388.416 399.461l-4.52-.691-4.967 32.457 4.52.691 4.967-32.457z" fill="#92E3A9"/><path d="M386.344 412.926l-4.52-.691-2.337 15.273 4.52.691 2.337-15.273z" fill="#92E3A9"/><path opacity=".2" d="M396.377 415.308l-4.519-.692-4.967 32.457 4.52.692 4.966-32.457z" fill="#92E3A9"/><path d="M395.433 421.431l-4.52-.691-2.337 15.273 4.52.692 2.337-15.274z" fill="#92E3A9"/><path opacity=".2" d="M407.833 408.39l-4.519-.691-4.967 32.457 4.52.692 4.966-32.458z" fill="#92E3A9"/><path d="M408.341 413.373l-4.527-.686-2.32 15.312 4.527.686 2.32-15.312z" fill="#92E3A9"/><path opacity=".2" d="M420.233 395.364l-4.52-.692-4.967 32.457 4.52.692 4.967-32.457z" fill="#92E3A9"/><path d="M420.217 395.376l-4.52-.692-2.339 15.288 4.519.692 2.34-15.288z" fill="#92E3A9"/><path opacity=".2" d="M427.254 417.482l-4.52-.692-4.966 32.457 4.519.692 4.967-32.457z" fill="#92E3A9"/><path d="M426.677 421.158l-4.52-.692-2.339 15.289 4.52.691 2.339-15.288z" fill="#92E3A9"/><path opacity=".2" d="M435.218 433.313l-4.519-.692-4.967 32.458 4.52.691 4.966-32.457z" fill="#92E3A9"/><path d="M434.656 436.974l-4.519-.692-2.34 15.289 4.52.691 2.339-15.288z" fill="#92E3A9"/><path opacity=".2" d="M448.006 417.689l-4.52-.692-4.967 32.458 4.52.691 4.967-32.457z" fill="#92E3A9"/><path d="M446.148 429.892l-4.519-.692-2.34 15.289 4.52.691 2.339-15.288z" fill="#92E3A9"/><path opacity=".2" d="M460.985 400.897l-4.52-.692-4.967 32.457 4.52.692 4.967-32.457z" fill="#92E3A9"/><path d="M458.73 415.56l-4.52-.691-2.339 15.288 4.519.692 2.34-15.289z" fill="#92E3A9"/><path opacity=".2" d="M468.339 420.79l-4.52-.692-4.967 32.457 4.52.692 4.967-32.457z" fill="#92E3A9"/><path d="M468.968 425.7l-4.527-.686-2.32 15.311 4.527.686 2.32-15.311z" fill="#92E3A9"/><path opacity=".2" d="M477.657 427.752l-4.52-.692-4.966 32.457 4.52.692 4.966-32.457z" fill="#92E3A9"/><path d="M475.616 441.202l-4.519-.692-2.34 15.288 4.52.692 2.339-15.288z" fill="#92E3A9"/><path opacity=".2" d="M489.376 419.173l-4.519-.692-4.967 32.457 4.52.692 4.966-32.457z" fill="#92E3A9"/><path d="M489.375 419.187l-4.52-.692-2.339 15.288 4.52.692 2.339-15.288z" fill="#92E3A9"/><path opacity=".2" d="M497.99 430.853l-4.52-.692-4.966 32.457 4.52.692 4.966-32.457z" fill="#92E3A9"/><path d="M497.61 433.297l-4.52-.691-2.34 15.288 4.52.691 2.34-15.288z" fill="#92E3A9"/><path opacity=".2" d="M508.834 428.028l-4.52-.692-4.967 32.458 4.52.691 4.967-32.457z" fill="#92E3A9"/><path d="M508.636 429.256l-4.519-.691-2.34 15.288 4.52.692 2.339-15.289z" fill="#92E3A9"/><path opacity=".2" d="M518.338 433.759l-4.52-.692-4.966 32.457 4.519.692 4.967-32.457z" fill="#92E3A9"/><path d="M517.393 449.646l-4.527-.685-2.32 15.311 4.527.686 2.32-15.312z" fill="#92E3A9"/><path d="M354.234 478.838l-85.117-13.025-.404 2.639 85.117 13.025.404-2.639z" fill="#999" stroke="#263238" stroke-linecap="round" stroke-linejoin="round"/><path opacity=".2" d="M408.335 293.287s-11.538 6.398-4.189 23.736c7.35 17.338 52.045 45.847 51.14 60.331 0 0-45.892-28.6-58.643-12.091 0 0 34.661 33.618 38.267 58.904 3.606 25.286 15.343 36.502 42.471 50.925 27.127 14.422 86.107 90.526 86.107 90.526l-8.822-127.811-85.924-96.971-42.47-24.212-17.937-23.337z" fill="#000" fill-opacity=".7"/><path d="M641.464 521.168L565.82 570.85h-.122a.367.367 0 01-.323-.23c-.337-.89-33.755-90.204-41.811-97.17a32.911 32.911 0 01-9.543-15.252v-.122a20.053 20.053 0 01-.461-1.795 55.616 55.616 0 00-19.747-22.187 103.018 103.018 0 00-17.859-8.592c-9.513-3.852-19.302-7.826-26.222-15.175a32.2 32.2 0 01-3.238-4.035c-11.001-16.111-27.986-33.894-33.648-37.546-5.662-3.652-16.08-3.161-16.172-3.161a.335.335 0 01-.368-.276 9.664 9.664 0 01.372-4.182 9.666 9.666 0 012.113-3.628 15.35 15.35 0 0111.708-5.37c8.745 0 20.79 4.603 26.866 10.388 6.076 5.784 20.13 10.034 21.742 10.525 2.286-1.35 7.671 1.535 9.651 2.778-2.348-8.363-1.397-11.585-1.028-12.398-5.033-6.521-31.24-25.823-45.156-35.505-3.836-2.685-6.721-4.603-7.979-5.355-6.49-3.82-11.86-15.773-10.817-24.12a7.67 7.67 0 013.069-5.799 7.39 7.39 0 014.373-1.12 9.585 9.585 0 011.856.23.62.62 0 01.169.107c.123.169 13.149 15.62 17.66 18.044 2.21 1.181 13.963 7.119 25.133 12.643l5.033 2.486a123.61 123.61 0 01.767-14.561c.429-1.903 3.467-4.603 6.92-6.138 1.611-.736 4.603-1.795 6.797-.629.844.476 2.838 1.703 5.6 3.422l4.603 2.854a17.903 17.903 0 013.56-4.005c1.151-.675 7.518-1.856 9.789-1.059 1.979.722 8.331 4.757 15.052 9.022l2.9 1.826c.353-.66 1.181-2.04 1.964-2.347a17.525 17.525 0 0110.357-.553c2.27.829 10.065 6.583 17.614 12.152 4.143 3.069 8.117 6 10.74 7.764a.37.37 0 01.215.154c.752.506 1.381.905 1.857 1.181 5.554 3.176 19.21 74.799 19.348 75.52.89 4.803 4.142 9.759 7.579 15.006a79.274 79.274 0 019.467 17.661c4.373 12.781 14.331 31.484 28.923 54.346 1.319 2.046 2.68 4.148 4.081 6.306a1393.057 1393.057 0 0012.26 18.213z" fill="#fff"/><path opacity=".4" d="M472.9 383.998c-2.93 2.316-24.196.122-26.805 7.272-1.534 4.22-.399 10.603 3.591 19.026a32.129 32.129 0 01-3.238-4.035c-11.001-16.111-27.986-33.894-33.648-37.546-5.662-3.651-16.034-3.13-16.126-3.13a.335.335 0 01-.368-.276 9.664 9.664 0 01.372-4.182 9.666 9.666 0 012.113-3.628 15.35 15.35 0 0111.708-5.37c8.745 0 20.79 4.603 26.866 10.388 6.076 5.784 20.13 10.034 21.742 10.525 2.286-1.35 7.671 1.535 9.651 2.778-2.348-8.363-1.397-11.585-1.028-12.398-5.033-6.521-31.24-25.823-45.156-35.505-3.836-2.685-6.721-4.603-7.979-5.355-6.49-3.82-11.86-15.773-10.817-24.12a7.67 7.67 0 013.069-5.799 7.39 7.39 0 014.373-1.12 9.802 9.802 0 00-2.885 1.749c-4.265 3.636 5.907 22.831 11.63 28.14 5.984 5.539 32.897 19.286 42.563 27.48 5.309 4.495 12.275 11.308 12.275 11.308-4.25 7.242.951 21.527-1.903 23.798z" fill="#92E3A9"/><path d="M571.712 266.666v-.107a.094.094 0 010 .107z" fill="#92E3A9"/><path opacity=".4" d="M625.123 496.572c-11.4-10.847-28.37-27.741-31.546-35.151-4.849-11.355-8.086-21.834-14.116-29.475-6.03-7.641-18.259-89.069-21.773-89.299-3.513-.23 4.419 32.221 4.833 33.878-.337-1.028-4.725-14.852-8.929-30.61-4.358-16.371-8.762-17.261-8.762-17.261-5.845 1.166-5.876 5.324-8.868 5.263-2.992-.062-13.257-7.35-13.257-7.35-9.958 1.442-47.319-22.616-47.319-22.616-8.5 1.151-10.495 8.577-3.238 15.543 7.258 6.966 18.106 15.404 18.106 15.404-6.997 3.407-32.682-11.001-32.682-11.001l-1.534-1.381 5.032 2.486c-.03-4.865.226-9.727.768-14.561.429-1.903 3.467-4.603 6.92-6.137 1.611-.737 4.603-1.796 6.797-.629.844.475 2.838 1.703 5.6 3.421l4.603 2.854a17.903 17.903 0 013.56-4.005c1.151-.675 7.518-1.856 9.789-1.058 1.979.721 8.331 4.756 15.052 9.022l2.9 1.826c.353-.66 1.181-2.041 1.964-2.348a17.517 17.517 0 0110.357-.552c2.27.828 10.065 6.582 17.614 12.152 4.143 3.068 8.117 5.999 10.74 7.763a.37.37 0 01.215.154c.752.506 1.381.905 1.857 1.181 5.554 3.176 19.21 74.8 19.348 75.521.89 4.802 4.142 9.758 7.579 15.006a79.297 79.297 0 019.467 17.691c4.373 12.704 14.331 31.408 28.923 54.269z" fill="#92E3A9"/><path d="M565.697 570.543s-33.755-90.219-41.903-97.308a32.483 32.483 0 01-9.942-17.123 55.728 55.728 0 00-19.947-22.371c-14.561-9.59-36.578-12.075-47.227-27.618-10.648-15.543-27.71-33.756-33.755-37.653-6.046-3.897-16.341-3.191-16.341-3.191-1.059-6.046 5.677-12.782 13.809-12.782s20.238 4.251 26.636 10.296c6.398 6.045 22.018 10.648 22.018 10.648 2.486-1.78 10.173 3.161 10.173 3.161-3.069-10.388-1.212-13.195-1.212-13.195-6.03-8.163-47.32-37.546-53.35-41.105-6.03-3.56-11.722-15.267-10.663-23.798a6.858 6.858 0 018.884-6.383s13.134 15.62 17.752 18.105c4.618 2.486 40.844 20.606 46.168 22.724a10.003 10.003 0 009.207-.706" stroke="#263238" stroke-linecap="round" stroke-linejoin="round"/><path d="M461.408 325.585s0-11.814.767-15.021c.767-3.207 9.314-8.731 13.211-6.613 3.897 2.117 32.681 21.051 40.184 21.895" stroke="#263238" stroke-linecap="round" stroke-linejoin="round"/><path d="M485.865 310.349a20.328 20.328 0 013.652-4.189c1.059-.629 7.365-1.795 9.498-1.028 4.265 1.535 29.398 18.873 33.648 19.947" stroke="#263238" stroke-linecap="round" stroke-linejoin="round"/><path d="M517.182 316.21s1.089-2.179 1.964-2.532a17.023 17.023 0 0110.111-.537c3.913 1.427 25.393 18.413 30.365 21.22 4.971 2.808 17.414 65.701 19.179 75.291 1.764 9.589 12.443 19.179 17.047 32.681 4.603 13.503 15.634 34.093 33.034 60.73 3.069 4.603 6.26 9.467 9.467 14.162M483.303 350.61s1.534-7.196 5.861-10.387c4.327-3.192 10.127 1.872 14.377 2.393" stroke="#263238" stroke-linecap="round" stroke-linejoin="round"/><path d="M512.333 339.164s2.394-8.27 6.659-10.127c4.266-1.856 10.833 3.729 13.671 3.99m7.641-1.335s3.192-3.069 4.526-3.069c1.335 0 6.92 5.846 8.133 6.245 1.212.399 2.654-1.795 4.725-1.826m-27.096-8.884c2.332-.173 4.66.402 6.643 1.642m-69.153 37.591s-2.117-5.462-1.058-8.254m5.216-31.823s2.532 2.961 2.67 5.34c.138 2.378 6.138 5.263 6.138 5.263m31.807-8.792s3.483-1.243 5.339 0m-50.111 45.462a10.742 10.742 0 014.127-9.206m-2.885 15.206s-3.958 3.406-3.958 5.539m-14.27-11.539c4.696 1.75 8.593 9.053 11.431 10.296m45.448-33.556c2.838 4.081 9.206 33.755 15.619 43.145m8.194-51.523c.537.353 4.265 11.891 4.265 11.891m43.406 61.221a68.604 68.604 0 005.064 17.123m-70.196 28.938c-.476-1.949-2.532-14.73-5.064-18.995" stroke="#263238" stroke-linecap="round" stroke-linejoin="round"/><path opacity=".2" d="M84.328 657.556s49.927-67.128 87.58-79.418c37.653-12.29 39.509-28.968 37.975-60.085-1.534-31.116-.399-62.478-10.74-66.222-10.342-3.744 12.397-44.373 1.534-60.469l-71.24 111.916-45.11 154.278z" fill="#000" fill-opacity=".7"/><path d="M72.222 676.26l-.752-.246 1.074.599-.322-.353zm121.366-205.925c-6.137-2.869-18.32-16.325-19.839-18.013 7.672-12.919 15.252-25.378 17.875-28.37 5.447-6.137 12.091-24.043 9.391-32.697-2.471-7.948-10.557-6.674-11.662-6.46h-.122a.284.284 0 00-.2.138c-.169.292-16.632 28.048-21.741 34.692a1574.282 1574.282 0 01-13.81 17.568l-1.703-.261a29.542 29.542 0 00-10.74.307l-.353.123a37.06 37.06 0 00-5.263 2.793l-1.212-.507c-2.424-1.012-7.441-2.961-9.82-3.068-2.9-.154-13.118 4.603-19.225 8.438a41.195 41.195 0 00-12.996-1.764c-4.68.199-14.223 4.081-21.895 7.196-3.406 1.381-6.352 2.578-8.07 3.069l-1.535.46c-4.603 1.366-7.089 2.133-10.28 8.516-3.314 6.628-6.89 31.346-8.608 43.222l-.23 1.611c-.66 4.603-.552 12.674-.445 21.282.169 11.967.338 24.334-1.442 29.152a75.952 75.952 0 01-9.452 17.062 99.465 99.465 0 00-1.396 2.041 52.6 52.6 0 00-5.693 11.983c-1.288 3.406-2.9 7.15-4.464 10.572-2.885 6.336-5.57 11.569-5.57 11.569s54.392 60.008 59.134 65.271c.255.098.516.18.782.245.184-.307 10.219-17.461 20.852-34.385 9.206-14.606 18.765-29.045 22.862-32.359a37.947 37.947 0 0011.753-18.289c2.209-7.104 16.31-15.865 29.95-24.335 15.083-9.36 30.687-19.041 31.209-27.05.291-4.143 1.242-11.002 2.347-18.965 2.992-21.573 6.705-48.439 1.611-50.787zm-25.838 34.492l-6.705 6.521c-.951-5.37-7.472-12.505-8.5-13.594.515-2.582.848-5.197.997-7.825.245-2.992.506-6.138 1.243-6.644.736-.506 4.127-6.137 9.651-15.343.46 6.49 6.137 13.64 6.904 14.668l-3.59 22.217z" fill="#fff"/><path opacity=".4" d="M88.133 484.896c-1.98 17.676-19.302 61.527-19.302 61.527l-3.069-44.173s-13.487 59.946-17.185 62.11c-3.697 2.163-10.188 13.625-13.809 22.723-2.44 6.138-10.74 10.311-15.972 12.413 1.534-3.421 3.176-7.165 4.465-10.571a52.623 52.623 0 015.692-11.984c.43-.644.89-1.319 1.396-2.04a75.97 75.97 0 009.452-17.062c1.78-4.849 1.534-17.216 1.442-29.153-.107-8.607-.215-16.739.445-21.281l.23-1.611c1.719-11.876 5.294-36.594 8.608-43.223 3.191-6.383 5.708-7.15 10.28-8.515l1.534-.461c1.719-.537 4.603-1.733 8.071-3.068 7.672-3.069 17.215-6.997 21.895-7.196a41.166 41.166 0 0112.919 1.795c6.138-3.851 16.326-8.593 19.226-8.439 2.378.107 7.395 2.056 9.819 3.069-10.188 5.247-27.326 17.89-27.326 17.89-19.379 4.204-18.811 27.25-18.811 27.25zm34.339-23.475a170.705 170.705 0 0115.573-9.59c4.972-2.332 6.567-11.63 3.069-14.254a.983.983 0 00-.445-.184l.353-.123a29.542 29.542 0 0110.74-.307c-6.429 9.651-11.461 17.047-12.796 18.642-4.419 5.371-16.494 5.816-16.494 5.816zm25.362 60.56l2.348 1.013c-1.427 5.692-2.348-1.013-2.348-1.013z" fill="#92E3A9"/><path opacity=".4" d="M193.588 470.335c-6.137-2.869-18.32-16.325-19.839-18.013 7.672-12.919 15.252-25.378 17.875-28.37 5.447-6.137 12.091-24.043 9.391-32.697-2.471-7.948-10.557-6.674-11.661-6.46v.338s8.745 1.089 8.73 13.732c-.015 12.643-22.724 37.699-22.724 37.699s-23.352 43.806-24.887 43.146c-1.534-.66-4.956 29.275-4.956 29.275s6.506 5.539 4.956 12.996c-.082.368-.158.706-.23 1.013l10.004 4.311s10.035-7.042 15.129 3.315c5.094 10.356-48.977 47.365-53.227 52.842 0 0-.598 20.637-8.485 23.675-5.109 1.964-14.116 21.481-19.808 34.999 9.206-14.607 18.765-29.045 22.862-32.36a37.947 37.947 0 0011.753-18.289c2.209-7.104 16.31-15.865 29.95-24.335 15.083-9.359 30.687-19.041 31.209-27.05.291-4.143 1.243-11.001 2.347-18.965 2.992-21.588 6.705-48.454 1.611-50.802zm-25.838 34.492l-6.705 6.521c-.951-5.37-7.472-12.505-8.5-13.594.515-2.582.848-5.197.997-7.825.245-2.992.506-6.138 1.243-6.644.736-.506 4.127-6.137 9.651-15.343.46 6.49 6.137 13.64 6.904 14.668l-3.59 22.217z" fill="#92E3A9"/><path d="M128.164 461.82a20.701 20.701 0 0010.879-6.215c4.603-5.17 23.322-29.014 28.508-35.75 5.186-6.736 21.757-34.722 21.757-34.722s8.807-2.071 11.4 6.229c2.593 8.301-3.621 25.9-9.329 32.375-5.708 6.475-34.722 57.784-36.824 59.333-2.102 1.55-.507 16.08-4.603 19.18" stroke="#263238" stroke-linecap="round" stroke-linejoin="round"/><path d="M152.177 497.892s8.116 8.5 8.638 14.193l7.242-7.089 3.636-22.447s-7.165-8.624-6.95-15.712" stroke="#263238" stroke-linecap="round" stroke-linejoin="round"/><path d="M173.351 452.368s13.364 15.159 20.1 18.274c6.735 3.115-3.069 54.408-4.143 69.429-1.074 15.021-56.479 36.241-61.144 51.293a37.358 37.358 0 01-11.661 18.136c-8.991 7.288-43.79 66.852-43.79 66.852m80.967-238.775s-7.902-1.458-12.566 0c-4.665 1.458-24.397 15.466-29 18.028-4.603 2.563-11.4 3.069-12.95 6.215" stroke="#263238" stroke-linecap="round" stroke-linejoin="round"/><path d="M135.437 440.553s-7.979-3.467-11.048-3.621c-3.068-.153-15.543 5.724-21.235 9.866a45.49 45.49 0 01-14.515 7.089" stroke="#263238" stroke-linecap="round" stroke-linejoin="round"/><path d="M105.18 445.371a40.354 40.354 0 00-12.935-1.826c-6.75.292-24.365 8.577-29.889 10.311-5.523 1.734-8.117 1.888-11.569 8.807-3.452 6.92-7.257 34.017-8.807 44.727-1.55 10.709 1.212 42.056-1.903 50.526-3.114 8.469-7.917 14.806-10.817 19.21-5.907 8.776-5.247 15.343-16.003 33.939" stroke="#263238" stroke-linecap="round" stroke-linejoin="round"/><path d="M92.675 464.152c-6.736 5.968-5.493 17.369-4.603 20.744.89 3.376-3.238 16.878-4.603 24.089m51.968-39.064c-12.275.261-16.08 8.546-16.878 13.993m-34.953-26.268c-3.636-.261-12.965 5.447-14.775 14.776m102.862 10.127s1.811-5.171 3.621-5.693m-7.257 28.14a67.261 67.261 0 01-3.314 8.899c-1.534 3.069 0 7.963 0 7.963m-3.928-9.773c-.261 5.186-5.969 10.74-7.135 9.773m-41.657-18.58c-.184 5.707-10.541 47.411-10.541 47.411" stroke="#263238" stroke-linecap="round" stroke-linejoin="round"/></svg>