<?xml version="1.0" encoding="utf-8"?><svg viewBox="0 0 17 16" xmlns="http://www.w3.org/2000/svg" xmlns:xlink="http://www.w3.org/1999/xlink"><style>:root>svg{display:none}:root>svg:target{display:block}</style><svg fill="none" viewBox="0 0 17 13" id="icon-checkbox" xmlns="http://www.w3.org/2000/svg"><path fill-rule="evenodd" clip-rule="evenodd" d="M5.707 9.293L15 0l1.414 1.414L5.707 12.121 0 6.414 1.414 5l4.293 4.293z" fill="#fff"/></svg><svg fill="none" viewBox="0 0 16 16" id="icon-internet" xmlns="http://www.w3.org/2000/svg"><path fill-rule="evenodd" clip-rule="evenodd" d="M8 .667a7.333 7.333 0 110 14.666A7.333 7.333 0 018 .667zm5.948 8.13c-.707.368-1.638.676-2.695.888-.15 1.534-.506 2.889-1.023 3.887a6.007 6.007 0 003.718-4.774zm-3.957-.26c.006-.177.01-.356.01-.537 0-3.344-1.063-6-2-6-.938 0-2 2.656-2 6 0 .191.003.38.01.567.625.065 1.293.1 1.989.1.685 0 1.358-.049 1.991-.13zm1.34-.234c.002-.1.002-.202.002-.303 0-2.218-.403-4.222-1.103-5.572a6.006 6.006 0 013.722 4.812c-.313.352-1.303.77-2.621 1.063zM6.119 9.918C6.717 9.972 7.347 10 8 10c.642 0 1.275-.036 1.884-.104C9.583 12.294 8.75 14 8 14c-.749 0-1.578-1.695-1.88-4.082zM4.67 8.367c-.382-.077-.739-.166-1.064-.269-.827-.26-1.368-.578-1.562-.826A6.006 6.006 0 015.77 2.428C5.07 3.778 4.667 5.782 4.667 8c0 .123.001.245.003.367zm.083 1.374c.153 1.511.506 2.845 1.017 3.83a6.008 6.008 0 01-3.701-4.66c.695.362 1.613.643 2.684.83z" fill="currentColor"/></svg><svg fill="none" viewBox="0 0 15 15" id="icon-phone" xmlns="http://www.w3.org/2000/svg"><path d="M13.796 9.846c-.918 0-1.82-.144-2.674-.426-.419-.143-.934-.012-1.19.25l-1.686 1.274C6.29 9.9 5.086 8.695 4.056 6.754L5.29 5.11c.321-.32.437-.789.299-1.228a8.53 8.53 0 01-.428-2.68C5.162.54 4.622 0 3.958 0H1.204C.54 0 0 .54 0 1.204 0 8.81 6.189 15 13.796 15 14.46 15 15 14.46 15 13.796V11.05c0-.663-.54-1.203-1.204-1.203z" fill="#fff"/></svg></svg>