<svg width="128" height="29" fill="none" xmlns="http://www.w3.org/2000/svg"><path d="M.203.992V29h10.8c4.259 0 7.774-1.348 10.587-4.043 2.812-2.695 4.219-6.016 4.219-9.96 0-3.946-1.407-7.267-4.2-9.962C18.797 2.34 15.262.992 11.004.992H.204zm10.8 6.817c2.11 0 3.829.683 5.177 2.011 1.328 1.348 2.011 3.067 2.011 5.176 0 2.07-.722 3.79-2.128 5.156-1.426 1.367-3.106 2.051-5.06 2.051H7.802V7.81h3.203z" fill="url(#paint0_linear_9:5)"/><path d="M30.594 29h7.597v-8.809h4.004L47 29h7.988l-5.8-10.195.527-.293c.312-.157.703-.43 1.172-.86.468-.43.937-.937 1.406-1.543.469-.605.86-1.386 1.191-2.363a9.65 9.65 0 00.508-3.144c0-2.715-.976-5-2.89-6.836-1.914-1.836-4.356-2.754-7.305-2.754H30.594V29zm15.8-18.398c0 .8-.292 1.464-.84 2.011-.566.528-1.288.801-2.167.801H38.19V7.828h5.196c.879 0 1.601.254 2.168.781a2.67 2.67 0 01.84 1.993zm30.567 2.207L82.156 29h6.797l9.2-28.008h-8.184l-4.805 17.012-5-17.012h-6.406l-5 17.012L63.953.992H55.75L64.969 29h6.797l5.195-16.191zM120.359.992v15.606L108.367.992h-6.601V29h7.597V13.395L121.395 29h6.562V.992h-7.598z" fill="#0C1727"/><defs><linearGradient id="paint0_linear_9:5" x1="-3" y1="-10.6" x2="18.427" y2="70.757" gradientUnits="userSpaceOnUse"><stop stop-color="#FC4A1A"/><stop offset="1" stop-color="#F7B733"/></linearGradient></defs></svg>